M48
; DRILL file KiCad 10.0.1 date 2026-07-19T18:32:22
; FORMAT={-:-/ absolute / metric / decimal}
; #@! TF.CreationDate,2026-07-19T18:32:22+01:00
; #@! TF.GenerationSoftware,Kicad,Pcbnew,10.0.1
; #@! TF.FileFunction,Plated,1,6,PTH
FMAT,2
METRIC
; #@! TA.AperFunction,Plated,PTH,ComponentDrill
T1C0.200
; #@! TA.AperFunction,Plated,PTH,ViaDrill
T2C0.300
; #@! TA.AperFunction,Plated,PTH,ViaDrill
T3C0.500
; #@! TA.AperFunction,Plated,PTH,ComponentDrill
T4C0.600
; #@! TA.AperFunction,Plated,PTH,ComponentDrill
T5C1.000
; #@! TA.AperFunction,Plated,PTH,ComponentDrill
T6C2.000
; #@! TA.AperFunction,Plated,PTH,ComponentDrill
T7C2.700
; #@! TA.AperFunction,Plated,PTH,ComponentDrill
T8C3.500
%
G90
G05
T1
X109.34Y-136.8
X109.34Y-138.1
X109.34Y-139.4
X111.25Y-136.8
X111.25Y-138.1
X111.25Y-139.4
T2
X96.2Y-125.375
X96.2Y-126.375
X96.55Y-125.825
X96.9Y-125.375
X96.9Y-126.375
X97.2Y-125.825
X97.55Y-125.375
X97.55Y-126.375
X97.9Y-125.825
X98.25Y-125.375
X98.25Y-126.375
X98.65Y-125.825
X99.0Y-125.375
X99.0Y-126.375
X100.025Y-63.475
X100.025Y-64.675
X100.075Y-61.025
X100.075Y-62.225
X100.425Y-64.075
X100.425Y-65.325
X100.475Y-61.625
X100.475Y-62.875
X100.65Y-76.8
X100.65Y-77.4
X100.65Y-77.95
X100.65Y-82.85
X100.65Y-83.4
X100.65Y-83.95
X100.85Y-73.55
X100.85Y-74.25
X100.85Y-74.95
X100.85Y-76.2
X100.875Y-63.45
X100.875Y-64.65
X100.925Y-61.0
X100.925Y-62.2
X101.05Y-84.45
X101.275Y-64.05
X101.275Y-65.3
X101.325Y-61.6
X101.325Y-62.85
X101.35Y-83.95
X101.45Y-76.2
X101.65Y-84.45
X101.725Y-63.45
X101.725Y-64.65
X101.775Y-61.0
X101.775Y-62.2
X101.9Y-73.55
X101.9Y-74.25
X101.9Y-74.95
X101.95Y-83.95
X102.0Y-76.2
X102.125Y-64.05
X102.125Y-65.3
X102.175Y-61.6
X102.175Y-62.85
X102.25Y-84.45
X102.55Y-83.95
X102.575Y-63.45
X102.575Y-64.65
X102.625Y-61.0
X102.625Y-62.2
X102.65Y-76.2
X102.85Y-73.55
X102.85Y-74.25
X102.85Y-74.95
X102.85Y-84.45
X102.975Y-64.05
X102.975Y-65.3
X103.025Y-61.6
X103.025Y-62.85
X103.15Y-76.2
X103.15Y-83.95
X103.425Y-63.45
X103.425Y-64.65
X103.45Y-84.45
X103.475Y-61.0
X103.475Y-62.2
X103.75Y-76.15
X103.75Y-83.95
X103.825Y-64.05
X103.825Y-65.3
X103.875Y-61.6
X103.875Y-62.85
X104.1Y-84.4
X104.275Y-63.45
X104.275Y-64.65
X104.3Y-76.15
X104.325Y-61.0
X104.325Y-62.2
X104.4Y-83.95
X104.55Y-128.825
X104.675Y-64.05
X104.675Y-65.3
X104.725Y-61.6
X104.725Y-62.85
X104.75Y-84.4
X104.85Y-82.9
X104.85Y-83.45
X105.1Y-83.95
X105.175Y-78.875
X105.226Y-74.395
X106.025Y-74.425
X106.825Y-74.425
X108.0Y-79.45
X108.0Y-80.15
X108.0Y-80.95
X108.0Y-81.7
X108.0Y-82.45
X108.0Y-83.2
X108.1Y-87.9
X108.15Y-86.4
X108.15Y-87.15
X108.75Y-79.45
X108.75Y-80.15
X108.75Y-80.95
X108.75Y-81.7
X108.75Y-82.45
X108.75Y-83.2
X108.85Y-87.9
X108.9Y-86.4
X108.9Y-87.15
X109.5Y-79.45
X109.5Y-80.15
X109.5Y-80.95
X109.5Y-81.7
X109.5Y-82.45
X109.5Y-83.2
X109.6Y-87.9
X109.65Y-86.4
X109.65Y-87.15
X110.25Y-79.45
X110.25Y-80.15
X110.25Y-80.95
X110.25Y-81.7
X110.25Y-82.45
X110.25Y-83.2
X110.35Y-87.9
X110.4Y-86.4
X110.4Y-87.15
X110.75Y-71.05
X111.0Y-81.7
X111.0Y-82.45
X111.0Y-83.2
X111.0Y-128.65
X111.05Y-71.6
X111.1Y-70.55
X111.1Y-87.9
X111.15Y-86.4
X111.15Y-87.15
X111.35Y-71.1
X111.5Y-70.1
X111.7Y-70.65
X111.7Y-71.6
X111.7Y-128.6
X111.75Y-81.7
X111.75Y-82.45
X111.75Y-83.2
X111.85Y-87.9
X111.9Y-86.4
X111.9Y-87.15
X112.0Y-71.15
X112.35Y-71.6
X112.35Y-128.6
X112.5Y-81.7
X112.5Y-82.45
X112.5Y-83.2
X112.6Y-87.9
X112.65Y-86.4
X112.65Y-87.15
X113.0Y-128.6
X113.2Y-138.45
X113.25Y-80.2
X113.25Y-80.95
X113.25Y-81.7
X113.25Y-82.45
X113.25Y-83.2
X113.5Y-63.45
X113.5Y-64.65
X113.5Y-73.95
X113.55Y-61.0
X113.55Y-62.2
X113.6Y-91.25
X113.6Y-91.95
X113.6Y-92.65
X113.65Y-108.2
X113.65Y-108.95
X113.65Y-109.7
X113.65Y-110.45
X113.65Y-111.2
X113.65Y-111.95
X113.9Y-64.05
X113.9Y-65.3
X113.925Y-138.775
X113.95Y-61.6
X113.95Y-62.85
X114.0Y-80.2
X114.0Y-80.95
X114.0Y-81.7
X114.0Y-82.45
X114.0Y-83.2
X114.05Y-73.3
X114.05Y-74.65
X114.35Y-63.425
X114.35Y-64.625
X114.35Y-91.25
X114.35Y-91.95
X114.35Y-92.65
X114.35Y-93.4
X114.4Y-60.975
X114.4Y-62.175
X114.4Y-107.45
X114.4Y-111.2
X114.4Y-111.95
X114.55Y-73.95
X114.75Y-64.025
X114.75Y-65.275
X114.75Y-80.2
X114.75Y-80.95
X114.75Y-81.7
X114.75Y-82.45
X114.75Y-83.2
X114.8Y-61.575
X114.8Y-62.825
X115.05Y-91.25
X115.05Y-91.95
X115.05Y-92.65
X115.1Y-73.3
X115.1Y-74.65
X115.1Y-93.4
X115.15Y-107.45
X115.15Y-111.2
X115.15Y-111.95
X115.2Y-63.425
X115.2Y-64.625
X115.25Y-60.975
X115.25Y-62.175
X115.5Y-73.95
X115.5Y-77.25
X115.5Y-78.0
X115.5Y-78.75
X115.5Y-79.5
X115.5Y-80.2
X115.5Y-80.95
X115.5Y-81.7
X115.5Y-82.45
X115.5Y-83.2
X115.6Y-64.025
X115.6Y-65.275
X115.65Y-61.575
X115.65Y-62.825
X115.75Y-91.25
X115.75Y-91.95
X115.75Y-92.65
X115.75Y-120.2
X115.75Y-121.2
X115.75Y-122.2
X115.75Y-123.2
X115.8Y-93.4
X115.9Y-107.45
X115.9Y-111.2
X115.9Y-111.95
X116.05Y-63.425
X116.05Y-64.625
X116.05Y-73.3
X116.05Y-74.65
X116.1Y-60.975
X116.1Y-62.175
X116.1Y-126.15
X116.2Y-77.3
X116.2Y-78.05
X116.2Y-78.8
X116.2Y-79.55
X116.2Y-80.3
X116.2Y-81.05
X116.2Y-81.8
X116.2Y-82.45
X116.2Y-83.2
X116.4Y-73.95
X116.45Y-64.025
X116.45Y-65.275
X116.5Y-61.575
X116.5Y-62.825
X116.5Y-91.25
X116.5Y-91.95
X116.5Y-92.65
X116.5Y-93.4
X116.65Y-107.45
X116.65Y-111.2
X116.65Y-111.95
X116.75Y-118.2
X116.75Y-119.6
X116.75Y-123.8
X116.75Y-125.2
X116.9Y-63.425
X116.9Y-64.625
X116.95Y-60.975
X116.95Y-62.175
X116.95Y-77.3
X116.95Y-78.05
X116.95Y-78.8
X116.95Y-79.55
X116.95Y-80.3
X116.95Y-81.05
X116.95Y-81.8
X116.95Y-82.45
X116.95Y-83.2
X117.25Y-91.25
X117.25Y-91.95
X117.25Y-92.65
X117.25Y-93.4
X117.3Y-64.025
X117.3Y-65.275
X117.35Y-61.575
X117.35Y-62.825
X117.4Y-107.45
X117.4Y-108.2
X117.4Y-108.95
X117.4Y-109.7
X117.4Y-110.45
X117.4Y-111.2
X117.4Y-111.95
X117.7Y-77.3
X117.7Y-78.05
X117.7Y-78.8
X117.7Y-79.55
X117.7Y-80.3
X117.7Y-81.05
X117.7Y-81.8
X117.7Y-82.45
X117.7Y-83.2
X117.75Y-63.425
X117.75Y-64.625
X117.775Y-74.45
X117.8Y-60.975
X117.8Y-62.175
X117.9Y-114.4
X117.95Y-93.4
X118.0Y-91.25
X118.0Y-91.95
X118.0Y-92.65
X118.125Y-127.8
X118.125Y-129.4
X118.125Y-131.0
X118.125Y-132.775
X118.15Y-64.025
X118.15Y-65.275
X118.15Y-107.45
X118.15Y-108.2
X118.15Y-108.95
X118.15Y-109.7
X118.15Y-110.45
X118.15Y-111.2
X118.15Y-111.95
X118.2Y-61.575
X118.2Y-62.825
X118.45Y-83.2
X118.55Y-118.2
X118.55Y-125.4
X118.575Y-74.424
X118.7Y-91.25
X118.7Y-91.95
X118.7Y-92.65
X118.7Y-93.4
X118.825Y-134.45
X118.9Y-107.45
X118.9Y-108.2
X118.9Y-108.95
X118.9Y-109.7
X118.9Y-110.45
X118.9Y-111.2
X118.9Y-111.95
X119.198Y-127.865
X119.4Y-91.25
X119.4Y-91.95
X119.4Y-92.65
X119.4Y-93.4
X119.436Y-74.421
X119.65Y-107.45
X119.65Y-108.2
X119.65Y-108.95
X119.65Y-109.7
X119.65Y-110.45
X119.65Y-111.2
X119.65Y-111.95
X119.75Y-114.4
X119.95Y-113.7
X120.1Y-77.5
X120.1Y-78.25
X120.1Y-79.0
X120.1Y-79.75
X120.1Y-80.5
X120.1Y-81.25
X120.1Y-93.4
X120.15Y-91.25
X120.15Y-91.95
X120.15Y-92.65
X120.35Y-118.2
X120.35Y-119.6
X120.35Y-123.8
X120.35Y-125.2
X120.4Y-107.45
X120.4Y-108.2
X120.4Y-108.95
X120.4Y-109.7
X120.4Y-110.45
X120.4Y-111.2
X120.4Y-111.95
X120.65Y-113.7
X120.75Y-130.2
X120.75Y-131.8
X120.85Y-77.5
X120.85Y-78.25
X120.85Y-79.0
X120.85Y-79.75
X120.85Y-80.5
X120.85Y-81.25
X120.85Y-91.25
X120.85Y-91.95
X120.85Y-93.4
X120.9Y-92.65
X120.957Y-117.393
X121.0Y-95.0
X121.05Y-115.1
X121.15Y-111.2
X121.15Y-111.95
X121.25Y-94.4
X121.35Y-113.7
X121.6Y-77.5
X121.6Y-78.25
X121.6Y-79.0
X121.6Y-79.75
X121.6Y-80.45
X121.6Y-81.2
X121.6Y-91.25
X121.6Y-91.95
X121.65Y-92.65
X121.65Y-93.4
X121.75Y-95.0
X121.85Y-115.1
X121.9Y-111.2
X121.95Y-117.5
X121.95Y-118.1
X122.0Y-94.4
X122.05Y-113.8
X122.15Y-114.5
X122.299Y-130.8
X122.3Y-91.25
X122.3Y-91.95
X122.35Y-80.45
X122.35Y-81.2
X122.35Y-92.65
X122.4Y-93.4
X122.45Y-95.0
X122.55Y-117.5
X122.55Y-118.1
X122.556Y-134.471
X122.7Y-94.4
X123.0Y-91.25
X123.0Y-91.95
X123.05Y-92.65
X123.1Y-80.45
X123.1Y-81.2
X123.1Y-93.4
X123.15Y-95.0
X123.15Y-117.5
X123.15Y-118.1
X123.18Y-129.2
X123.35Y-140.5
X123.4Y-94.4
X123.4Y-107.95
X123.4Y-109.2
X123.4Y-109.95
X123.55Y-112.1
X123.602Y-116.277
X123.65Y-110.7
X123.75Y-91.25
X123.75Y-91.95
X123.8Y-92.65
X123.8Y-93.4
X123.85Y-80.45
X123.85Y-81.2
X123.9Y-95.0
X123.972Y-130.79
X124.132Y-116.807
X124.15Y-94.4
X124.15Y-107.95
X124.15Y-140.5
X124.2Y-71.05
X124.35Y-111.9
X124.4Y-110.7
X124.5Y-71.6
X124.55Y-70.55
X124.55Y-86.3
X124.55Y-87.0
X124.55Y-87.75
X124.55Y-105.525
X124.672Y-117.347
X124.8Y-71.1
X124.85Y-81.25
X124.85Y-116.3
X124.95Y-70.1
X124.95Y-112.9
X125.15Y-70.65
X125.15Y-71.6
X125.15Y-108.45
X125.15Y-109.2
X125.15Y-109.95
X125.15Y-110.7
X125.15Y-111.9
X125.3Y-86.3
X125.3Y-87.0
X125.3Y-87.75
X125.3Y-88.45
X125.3Y-89.2
X125.3Y-89.95
X125.45Y-71.15
X125.65Y-130.7
X125.65Y-131.8
X125.65Y-132.9
X125.8Y-71.6
X125.8Y-81.25
X125.85Y-111.9
X125.875Y-128.6
X125.9Y-104.45
X125.9Y-105.2
X125.9Y-105.95
X125.9Y-106.7
X125.9Y-107.45
X125.9Y-109.2
X125.9Y-109.95
X125.9Y-110.7
X125.975Y-130.0
X126.05Y-86.3
X126.05Y-87.0
X126.05Y-87.75
X126.325Y-124.95
X126.4Y-112.25
X126.485Y-119.58
X126.65Y-80.45
X126.65Y-81.2
X126.65Y-104.95
X126.65Y-105.7
X126.65Y-106.45
X126.65Y-107.2
X126.675Y-95.725
X126.8Y-86.3
X126.8Y-87.0
X126.8Y-87.75
X126.95Y-63.425
X126.95Y-64.625
X127.0Y-60.975
X127.0Y-62.175
X127.05Y-73.95
X127.35Y-64.025
X127.35Y-65.275
X127.4Y-61.575
X127.4Y-62.825
X127.4Y-80.45
X127.4Y-81.2
X127.472Y-119.572
X127.5Y-111.775
X127.55Y-73.3
X127.55Y-74.6
X127.566Y-127.808
X127.65Y-140.2
X127.8Y-63.4
X127.8Y-64.6
X127.85Y-60.95
X127.85Y-62.15
X128.05Y-125.0
X128.1Y-73.95
X128.15Y-80.45
X128.15Y-81.2
X128.2Y-64.0
X128.2Y-65.25
X128.25Y-61.55
X128.25Y-62.8
X128.6Y-73.3
X128.6Y-74.6
X128.65Y-63.4
X128.65Y-64.6
X128.7Y-60.95
X128.7Y-62.15
X128.7Y-110.75
X128.825Y-130.775
X128.85Y-77.5
X128.85Y-78.25
X128.85Y-79.0
X128.85Y-79.75
X128.9Y-80.45
X128.9Y-81.2
X128.9Y-119.5
X129.05Y-64.0
X129.05Y-65.25
X129.05Y-73.95
X129.05Y-99.775
X129.05Y-128.825
X129.1Y-61.55
X129.1Y-62.8
X129.262Y-97.987
X129.41Y-110.381
X129.5Y-63.4
X129.5Y-64.6
X129.55Y-60.95
X129.55Y-62.15
X129.55Y-73.3
X129.55Y-74.6
X129.55Y-77.5
X129.55Y-78.25
X129.55Y-79.0
X129.55Y-79.7
X129.55Y-80.45
X129.55Y-81.2
X129.65Y-130.8
X129.725Y-128.825
X129.85Y-73.95
X129.9Y-64.0
X129.9Y-65.25
X129.95Y-61.55
X129.95Y-62.8
X129.975Y-98.55
X130.05Y-125.0
X130.108Y-110.771
X130.3Y-77.5
X130.3Y-78.25
X130.3Y-79.0
X130.3Y-79.7
X130.3Y-80.45
X130.3Y-81.2
X130.35Y-63.4
X130.35Y-64.6
X130.4Y-60.95
X130.4Y-62.15
X130.525Y-104.85
X130.525Y-106.2
X130.55Y-119.9
X130.65Y-114.7
X130.669Y-113.5
X130.725Y-97.95
X130.75Y-64.0
X130.75Y-65.25
X130.75Y-140.0
X130.756Y-110.302
X130.8Y-61.55
X130.8Y-62.8
X131.05Y-76.75
X131.05Y-77.5
X131.05Y-78.25
X131.05Y-79.0
X131.05Y-79.7
X131.05Y-80.45
X131.05Y-81.2
X131.15Y-128.75
X131.175Y-104.35
X131.175Y-105.6
X131.2Y-63.4
X131.2Y-64.6
X131.25Y-60.95
X131.25Y-62.15
X131.25Y-115.4
X131.265Y-114.188
X131.275Y-112.978
X131.35Y-98.65
X131.35Y-127.2
X131.432Y-110.731
X131.5Y-74.425
X131.6Y-64.0
X131.6Y-65.25
X131.65Y-61.55
X131.65Y-62.8
X131.85Y-127.2
X131.925Y-106.2
X131.95Y-104.85
X132.025Y-98.011
X132.05Y-112.378
X132.05Y-128.75
X132.05Y-131.82
X132.125Y-110.25
X132.3Y-74.452
X132.4Y-127.2
X132.55Y-98.75
X132.575Y-131.82
X132.65Y-104.325
X132.65Y-105.6
X132.703Y-110.803
X132.732Y-116.582
X132.8Y-119.28
X133.099Y-74.419
X133.12Y-131.82
X133.275Y-104.925
X133.275Y-106.2
X133.325Y-97.925
X133.35Y-113.7
X133.45Y-123.7
X133.65Y-76.8
X133.65Y-77.55
X133.65Y-78.3
X133.65Y-79.05
X133.65Y-79.75
X133.65Y-80.5
X133.65Y-81.25
X133.75Y-98.802
X133.812Y-118.987
X134.25Y-109.688
X134.4Y-76.8
X134.4Y-77.55
X134.4Y-78.3
X134.4Y-79.05
X134.4Y-79.75
X134.4Y-80.5
X134.4Y-81.25
X134.4Y-118.4
X134.625Y-98.075
X135.2Y-76.8
X135.2Y-77.55
X135.2Y-78.3
X135.2Y-79.05
X135.2Y-79.75
X135.2Y-80.5
X135.2Y-81.25
X135.95Y-128.5
X136.175Y-93.725
X136.25Y-110.025
X136.4Y-112.45
X136.4Y-113.2
X136.4Y-113.95
X136.4Y-114.7
X136.4Y-115.45
X136.725Y-91.825
X137.0Y-105.35
X137.021Y-109.429
X137.15Y-111.7
X137.15Y-115.45
X137.45Y-118.4
X137.65Y-71.05
X137.65Y-108.114
X137.85Y-110.025
X137.9Y-111.7
X137.9Y-115.45
X137.95Y-71.6
X137.95Y-118.4
X138.0Y-70.55
X138.25Y-71.1
X138.25Y-122.975
X138.4Y-70.1
X138.589Y-129.627
X138.6Y-70.65
X138.6Y-71.6
X138.65Y-111.7
X138.65Y-115.45
X138.9Y-71.15
X139.1Y-119.275
X139.25Y-71.6
X139.4Y-110.2
X139.4Y-110.95
X139.4Y-111.7
X139.4Y-115.45
X139.75Y-95.05
X139.8Y-88.1
X140.15Y-110.2
X140.15Y-110.95
X140.15Y-111.7
X140.15Y-115.45
X140.645Y-120.499
X140.675Y-119.7
X140.825Y-97.4
X140.825Y-99.05
X140.85Y-90.45
X140.85Y-92.05
X140.875Y-83.4
X140.875Y-85.05
X140.9Y-110.2
X140.9Y-110.95
X140.9Y-111.7
X141.15Y-102.2
X141.15Y-102.95
X141.15Y-103.7
X141.275Y-130.75
X141.483Y-127.0
X141.65Y-110.2
X141.65Y-110.95
X141.65Y-111.7
X141.75Y-123.9
X141.75Y-129.1
X141.85Y-122.3
X141.9Y-102.7
X141.9Y-103.45
X141.9Y-104.2
X141.9Y-130.75
X141.98Y-125.8
X142.4Y-110.2
X142.4Y-110.95
X142.425Y-136.65
X142.45Y-140.25
X142.525Y-130.75
X142.55Y-122.675
X142.55Y-123.275
X142.55Y-123.875
X142.65Y-103.2
X142.65Y-103.95
X142.65Y-104.7
X143.4Y-98.2
X143.4Y-112.2
X143.4Y-112.95
X143.4Y-113.7
X143.4Y-114.45
X143.4Y-115.2
X143.45Y-84.25
X143.45Y-91.25
X144.15Y-111.45
X144.15Y-112.2
X144.15Y-112.95
X144.15Y-113.7
X144.15Y-114.45
X144.15Y-115.2
X144.525Y-118.525
X144.525Y-121.725
X144.9Y-115.2
X145.15Y-115.95
X145.65Y-111.95
X145.65Y-115.2
X145.875Y-99.325
X145.9Y-115.95
X146.025Y-90.575
X146.175Y-81.875
X146.4Y-111.95
X146.4Y-115.2
X146.65Y-115.95
X147.15Y-111.95
X147.15Y-115.2
X147.4Y-115.95
X147.9Y-111.95
X147.9Y-115.2
X148.15Y-115.95
X148.65Y-111.95
X148.65Y-115.2
T3
X100.15Y-67.2
X100.15Y-69.2
X101.15Y-66.2
X101.15Y-68.2
X101.15Y-70.2
X101.65Y-67.2
X101.65Y-69.2
X102.65Y-66.2
X102.65Y-68.2
X102.65Y-70.2
X103.15Y-67.2
X103.15Y-69.2
X104.15Y-66.2
X104.15Y-68.2
X104.15Y-70.2
X104.65Y-67.2
X104.65Y-69.2
X106.05Y-67.2
X106.05Y-69.2
X107.05Y-66.2
X107.05Y-68.2
X107.05Y-70.2
X107.55Y-67.2
X107.55Y-69.2
X108.55Y-66.2
X108.55Y-68.2
X108.55Y-70.2
X109.05Y-67.2
X109.05Y-69.2
X110.05Y-66.2
X110.05Y-68.2
X110.05Y-70.2
X113.65Y-67.2
X113.65Y-69.2
X114.65Y-66.2
X114.65Y-68.2
X114.65Y-70.2
X115.15Y-67.2
X115.15Y-69.2
X116.15Y-66.2
X116.15Y-68.2
X116.15Y-70.2
X116.65Y-67.2
X116.65Y-69.2
X117.65Y-66.2
X117.65Y-68.2
X117.65Y-70.2
X118.15Y-67.2
X118.15Y-69.2
X119.5Y-67.2
X119.5Y-69.2
X120.5Y-66.2
X120.5Y-68.2
X120.5Y-70.2
X121.0Y-67.2
X121.0Y-69.2
X122.0Y-66.2
X122.0Y-68.2
X122.0Y-70.2
X122.5Y-67.2
X122.5Y-69.2
X123.5Y-66.2
X123.5Y-68.2
X123.5Y-70.2
X127.15Y-67.2
X127.15Y-69.2
X128.15Y-66.2
X128.15Y-68.2
X128.15Y-70.2
X128.65Y-67.2
X128.65Y-69.2
X129.65Y-66.2
X129.65Y-68.2
X129.65Y-70.2
X130.15Y-67.2
X130.15Y-69.2
X131.15Y-66.2
X131.15Y-68.2
X131.15Y-70.2
X131.65Y-67.2
X131.65Y-69.2
X133.0Y-67.2
X133.0Y-69.2
X134.0Y-66.2
X134.0Y-68.2
X134.0Y-70.2
X134.5Y-67.2
X134.5Y-69.2
X135.5Y-66.2
X135.5Y-68.2
X135.5Y-70.2
X136.0Y-67.2
X136.0Y-69.2
X137.0Y-66.2
X137.0Y-68.2
X137.0Y-70.2
T5
X130.7Y-135.05
X130.7Y-141.55
X135.2Y-135.05
X135.2Y-141.55
X137.925Y-135.175
X137.925Y-141.675
X142.425Y-135.175
X142.425Y-141.675
T7
X109.85Y-105.275
X109.85Y-112.475
T8
X98.875Y-143.125
X146.575Y-63.575
X146.675Y-143.125
T4
G00X104.4Y-102.125
M15
G01X103.3Y-102.125
M16
G05
G00X104.4Y-115.625
M15
G01X103.3Y-115.625
M16
G05
G00X143.83Y-123.18
M15
G01X144.93Y-123.18
M16
G05
G00X143.83Y-131.82
M15
G01X144.93Y-131.82
M16
G05
G00X148.26Y-123.18
M15
G01X148.86Y-123.18
M16
G05
G00X148.26Y-131.82
M15
G01X148.86Y-131.82
M16
G05
T6
G00X107.35Y-97.0
M15
G01X108.85Y-97.0
M16
G05
G00X115.35Y-97.0
M15
G01X116.85Y-97.0
M16
G05
M30
