G04 #@! TF.GenerationSoftware,KiCad,Pcbnew,10.0.1*
G04 #@! TF.CreationDate,2026-07-19T18:32:22+01:00*
G04 #@! TF.ProjectId,bldc&foc motor controller,626c6463-2666-46f6-9320-6d6f746f7220,rev?*
G04 #@! TF.SameCoordinates,Original*
G04 #@! TF.FileFunction,Copper,L3,Inr*
G04 #@! TF.FilePolarity,Positive*
%FSLAX46Y46*%
G04 Gerber Fmt 4.6, Leading zero omitted, Abs format (unit mm)*
G04 Created by KiCad (PCBNEW 10.0.1) date 2026-07-19 18:32:22*
%MOMM*%
%LPD*%
G01*
G04 APERTURE LIST*
G04 #@! TA.AperFunction,ComponentPad*
%ADD10O,5.500000X3.800000*%
G04 #@! TD*
G04 #@! TA.AperFunction,ComponentPad*
%ADD11O,5.300000X3.800000*%
G04 #@! TD*
G04 #@! TA.AperFunction,ComponentPad*
%ADD12R,3.716000X3.716000*%
G04 #@! TD*
G04 #@! TA.AperFunction,ComponentPad*
%ADD13C,3.716000*%
G04 #@! TD*
G04 #@! TA.AperFunction,ComponentPad*
%ADD14O,2.400000X1.200000*%
G04 #@! TD*
G04 #@! TA.AperFunction,ComponentPad*
%ADD15C,3.900000*%
G04 #@! TD*
G04 #@! TA.AperFunction,ComponentPad*
%ADD16O,2.100000X1.000000*%
G04 #@! TD*
G04 #@! TA.AperFunction,ComponentPad*
%ADD17O,1.600000X1.000000*%
G04 #@! TD*
G04 #@! TA.AperFunction,ComponentPad*
%ADD18C,1.700000*%
G04 #@! TD*
G04 #@! TA.AperFunction,HeatsinkPad*
%ADD19C,0.500000*%
G04 #@! TD*
G04 #@! TA.AperFunction,ViaPad*
%ADD20C,0.600000*%
G04 #@! TD*
G04 #@! TA.AperFunction,ViaPad*
%ADD21C,0.800000*%
G04 #@! TD*
G04 #@! TA.AperFunction,Conductor*
%ADD22C,0.200000*%
G04 #@! TD*
G04 APERTURE END LIST*
D10*
G04 #@! TO.N,Net-(J1-P)*
G04 #@! TO.C,F1*
X108100000Y-97000000D03*
D11*
G04 #@! TO.N,+BATT*
X116100000Y-97000000D03*
G04 #@! TD*
D12*
G04 #@! TO.N,Net-(J1-P)*
G04 #@! TO.C,J1*
X109850000Y-105275000D03*
D13*
G04 #@! TO.N,PGND*
X109850000Y-112475000D03*
D14*
X103850000Y-102125000D03*
X103850000Y-115625000D03*
G04 #@! TD*
D15*
G04 #@! TO.N,N/C*
G04 #@! TO.C,H2*
X146675000Y-143125000D03*
G04 #@! TD*
D16*
G04 #@! TO.N,N/C*
G04 #@! TO.C,J5*
X144380000Y-131820000D03*
D17*
X148560000Y-131820000D03*
D16*
X144380000Y-123180000D03*
D17*
X148560000Y-123180000D03*
G04 #@! TD*
D18*
G04 #@! TO.N,/BOOT*
G04 #@! TO.C,SW2*
X137925000Y-141675000D03*
X137925000Y-135175000D03*
G04 #@! TO.N,+3.3V*
X142425000Y-141675000D03*
X142425000Y-135175000D03*
G04 #@! TD*
G04 #@! TO.N,GND*
G04 #@! TO.C,SW1*
X130700000Y-141550000D03*
X130700000Y-135050000D03*
G04 #@! TO.N,/NRST*
X135200000Y-141550000D03*
X135200000Y-135050000D03*
G04 #@! TD*
D15*
G04 #@! TO.N,N/C*
G04 #@! TO.C,H1*
X98875000Y-143125000D03*
G04 #@! TD*
G04 #@! TO.N,N/C*
G04 #@! TO.C,H3*
X146575000Y-63575000D03*
G04 #@! TD*
D19*
G04 #@! TO.N,PGND*
G04 #@! TO.C,U6*
X111250000Y-139400000D03*
X111250000Y-138100000D03*
X111250000Y-136800000D03*
X109340000Y-139400000D03*
X109340000Y-138100000D03*
X109340000Y-136800000D03*
G04 #@! TD*
D20*
G04 #@! TO.N,GND*
X130550000Y-119900000D03*
X125900000Y-106700000D03*
X96900000Y-126375000D03*
X143450000Y-84250000D03*
X123400000Y-109950000D03*
X141900000Y-130750000D03*
X125900000Y-105200000D03*
X120350000Y-125200000D03*
X123400000Y-107950000D03*
X142550000Y-122675000D03*
X130050000Y-125000000D03*
X131150000Y-128750000D03*
X97900000Y-125825000D03*
X122550000Y-117500000D03*
X142550000Y-123875000D03*
X98650000Y-125825000D03*
X128050000Y-125000000D03*
X118550000Y-118200000D03*
X124850000Y-116300000D03*
X123150000Y-118100000D03*
X135950000Y-128500000D03*
X142525003Y-130750000D03*
X143450000Y-91250000D03*
X97550000Y-126375000D03*
X132050000Y-131820000D03*
X123400000Y-109200000D03*
X120350000Y-119600000D03*
X116750000Y-119600000D03*
X96900000Y-125375000D03*
X126650000Y-106450000D03*
X97550000Y-125375000D03*
X126650000Y-104950000D03*
X126400000Y-112250000D03*
X125975000Y-130000000D03*
X141850000Y-122300000D03*
X115750000Y-121200000D03*
X125850000Y-111900000D03*
X96200000Y-125375000D03*
X125900000Y-104450000D03*
X98250000Y-126375000D03*
X141275000Y-130750000D03*
X142550000Y-123275000D03*
X126650000Y-107200000D03*
X125900000Y-105950000D03*
X141482722Y-127000000D03*
X137950000Y-118400000D03*
X116750000Y-118200000D03*
X98250000Y-125375000D03*
X124350000Y-111900000D03*
X125650000Y-132900000D03*
X143400000Y-98200000D03*
X137450000Y-118400000D03*
X125150000Y-109950000D03*
X126650000Y-105700000D03*
X125900000Y-109200000D03*
X97200000Y-125825000D03*
X121950000Y-118100000D03*
X99000000Y-126375000D03*
X96550000Y-125825000D03*
X96200000Y-126375000D03*
X133120000Y-131820000D03*
X123150000Y-117500000D03*
X125150000Y-108450000D03*
X121950000Y-117500000D03*
X130750000Y-140000000D03*
X125900000Y-110700000D03*
X125650000Y-130700000D03*
X116750000Y-125200000D03*
X125150000Y-109200000D03*
X116750000Y-123800000D03*
X125150000Y-111900000D03*
X122550000Y-118100000D03*
X124400000Y-110700000D03*
X127500000Y-111775000D03*
X132575000Y-131820000D03*
X123650000Y-110700000D03*
X124150000Y-107950000D03*
X125150000Y-110700000D03*
X123550000Y-112100000D03*
X99000000Y-125375000D03*
X125650000Y-131800000D03*
X125900000Y-109950000D03*
X115750000Y-120200000D03*
X115750000Y-123200000D03*
X125900000Y-107450000D03*
X120350000Y-118200000D03*
X115750000Y-122200000D03*
X118550000Y-125400000D03*
X132050000Y-128750000D03*
X120350000Y-123800000D03*
X130107996Y-110771418D03*
X120957107Y-117392893D03*
G04 #@! TO.N,/VREG*
X140825000Y-97400000D03*
X146025000Y-90575000D03*
X140875000Y-85050000D03*
X133350000Y-113700000D03*
X118125000Y-131000000D03*
X146175000Y-81875000D03*
X136175000Y-93725000D03*
X144525000Y-121725000D03*
X124950000Y-112900000D03*
X140875000Y-83400000D03*
X140850000Y-90450000D03*
X137650000Y-108113972D03*
X144525000Y-118525000D03*
X140825000Y-99050000D03*
X118125000Y-129400000D03*
X145875000Y-99325000D03*
X118125000Y-132775000D03*
X140850000Y-92050000D03*
X118125000Y-127800000D03*
G04 #@! TO.N,+5V*
X112350000Y-128600000D03*
X111700000Y-128600000D03*
X111000000Y-128650000D03*
X118825000Y-134450000D03*
X113000000Y-128600000D03*
G04 #@! TO.N,VM*
X120150000Y-92650000D03*
D21*
X109050000Y-67200000D03*
D20*
X124500000Y-71600000D03*
D21*
X122500000Y-67200000D03*
D20*
X120150000Y-91250000D03*
X123800000Y-92650000D03*
X141900000Y-102700000D03*
X122350000Y-92650000D03*
X116500000Y-93400000D03*
D21*
X107550000Y-67200000D03*
D20*
X146400000Y-115200000D03*
X123800000Y-93400000D03*
X141900000Y-103450000D03*
X118700000Y-93400000D03*
X138000000Y-70550000D03*
X115100000Y-93400000D03*
X114350000Y-91250000D03*
D21*
X120500000Y-66200000D03*
X122000000Y-68200000D03*
D20*
X117250000Y-93400000D03*
X123100000Y-93400000D03*
X113600000Y-92650000D03*
X119400000Y-91950000D03*
X113600000Y-91250000D03*
X147150000Y-111950000D03*
D21*
X135500000Y-70200000D03*
D20*
X111500000Y-70100000D03*
D21*
X123500000Y-66200000D03*
D20*
X137650000Y-71050000D03*
D21*
X134500000Y-67200000D03*
D20*
X143400000Y-114450000D03*
X115050000Y-92650000D03*
X148650000Y-111950000D03*
X123750000Y-91950000D03*
X120850000Y-93400000D03*
X119400000Y-91250000D03*
D21*
X121000000Y-69200000D03*
D20*
X121600000Y-91250000D03*
X110750000Y-71050000D03*
X114350000Y-92650000D03*
X122000000Y-94400000D03*
X121000000Y-95000000D03*
D21*
X123500000Y-70200000D03*
D20*
X111700000Y-70650000D03*
X138250000Y-71100000D03*
X123150000Y-95000000D03*
X144150000Y-112200000D03*
X142650000Y-103950000D03*
X123000000Y-91250000D03*
X144150000Y-114450000D03*
X141900000Y-104200000D03*
D21*
X122000000Y-70200000D03*
D20*
X144150000Y-113700000D03*
X123400000Y-94400000D03*
X118700000Y-91950000D03*
D21*
X134000000Y-70200000D03*
D20*
X113600000Y-91950000D03*
X120850000Y-91950000D03*
X120850000Y-91250000D03*
X121250000Y-94400000D03*
D21*
X133000000Y-69200000D03*
D20*
X114350000Y-91950000D03*
D21*
X107050000Y-70200000D03*
D20*
X123000000Y-91950000D03*
D21*
X135500000Y-68200000D03*
D20*
X115750000Y-91950000D03*
X143400000Y-112200000D03*
X144900000Y-115200000D03*
X146400000Y-111950000D03*
X113200000Y-138450000D03*
D21*
X135500000Y-66200000D03*
D20*
X121650000Y-92650000D03*
X117250000Y-91250000D03*
D21*
X136000000Y-67200000D03*
D20*
X147900000Y-111950000D03*
D21*
X108550000Y-68200000D03*
D20*
X122450000Y-95000000D03*
D21*
X119500000Y-69200000D03*
D20*
X116500000Y-91250000D03*
X112350000Y-71600000D03*
D21*
X107050000Y-68200000D03*
D20*
X145150000Y-115950000D03*
X125150000Y-71600000D03*
X118000000Y-91950000D03*
X115750000Y-92650000D03*
X122700000Y-94400000D03*
X118700000Y-91250000D03*
X148650000Y-115200000D03*
X141150000Y-103700000D03*
X122300000Y-91950000D03*
X143400000Y-115200000D03*
D21*
X107550000Y-69200000D03*
D20*
X142650000Y-104700000D03*
D21*
X134500000Y-69200000D03*
X120500000Y-70200000D03*
D20*
X113925000Y-138775000D03*
X123900000Y-95000000D03*
X122400000Y-93400000D03*
X124200000Y-71050000D03*
X118700000Y-92650000D03*
X120900000Y-92650000D03*
D21*
X106050000Y-67200000D03*
D20*
X111350000Y-71100000D03*
D21*
X109050000Y-69200000D03*
D20*
X147400000Y-115950000D03*
X117950000Y-93400000D03*
X115050000Y-91950000D03*
X124950000Y-70100000D03*
D21*
X120500000Y-68200000D03*
D20*
X138900000Y-71150000D03*
X138600000Y-71600000D03*
X119400000Y-92650000D03*
X118000000Y-91250000D03*
X116500000Y-91950000D03*
X141150000Y-102950000D03*
X125800000Y-71600000D03*
X111050000Y-71600000D03*
D21*
X137000000Y-68200000D03*
X110050000Y-66200000D03*
D20*
X121650000Y-93400000D03*
D21*
X121000000Y-67200000D03*
D20*
X117250000Y-91950000D03*
X145650000Y-115200000D03*
D21*
X119500000Y-67200000D03*
D20*
X143400000Y-113700000D03*
X115750000Y-91250000D03*
D21*
X136000000Y-69200000D03*
D20*
X145650000Y-111950000D03*
X120150000Y-91950000D03*
D21*
X108550000Y-66200000D03*
X134000000Y-68200000D03*
D20*
X118000000Y-92650000D03*
X144150000Y-112950000D03*
X144150000Y-111450000D03*
X123050000Y-92650000D03*
X111700000Y-71600000D03*
X125450000Y-71150000D03*
X147150000Y-115200000D03*
D21*
X123500000Y-68200000D03*
D20*
X139250000Y-71600000D03*
D21*
X133000000Y-67200000D03*
D20*
X120100000Y-93400000D03*
X116500000Y-92650000D03*
D21*
X110050000Y-70200000D03*
D20*
X115050000Y-91250000D03*
X146650000Y-115950000D03*
X114350000Y-93400000D03*
X147900000Y-115200000D03*
D21*
X110050000Y-68200000D03*
D20*
X124800000Y-71100000D03*
D21*
X122000000Y-66200000D03*
D20*
X144150000Y-115200000D03*
X111100000Y-70550000D03*
X143400000Y-112950000D03*
X112000000Y-71150000D03*
X123750000Y-91250000D03*
X148150000Y-115950000D03*
X138600000Y-70650000D03*
X124550000Y-70550000D03*
X115800000Y-93400000D03*
X141150000Y-102200000D03*
D21*
X108550000Y-70200000D03*
D20*
X119400000Y-93400000D03*
D21*
X122500000Y-69200000D03*
D20*
X125150000Y-70650000D03*
X138400000Y-70100000D03*
D21*
X106050000Y-69200000D03*
D20*
X121750000Y-95000000D03*
X124150000Y-94400000D03*
D21*
X134000000Y-66200000D03*
D20*
X117250000Y-92650000D03*
X142650000Y-103200000D03*
X137950000Y-71600000D03*
D21*
X107050000Y-66200000D03*
X137000000Y-66200000D03*
D20*
X121600000Y-91950000D03*
X145900000Y-115950000D03*
X122300000Y-91250000D03*
D21*
X137000000Y-70200000D03*
D20*
G04 #@! TO.N,PGND*
X114750000Y-83200000D03*
X100650000Y-82850000D03*
X131925000Y-106200000D03*
X113650000Y-109700000D03*
X114000000Y-80200000D03*
X138650000Y-115450000D03*
X125300000Y-86300000D03*
X111750000Y-83200000D03*
X125300000Y-89950000D03*
X120850000Y-81250000D03*
X114750000Y-80950000D03*
X139400000Y-110950000D03*
X104100000Y-84400000D03*
X108000000Y-83200000D03*
X116200000Y-82450000D03*
X136400000Y-115450000D03*
X129550000Y-78250000D03*
X123100000Y-80450000D03*
X115500000Y-79500000D03*
X116650000Y-111950000D03*
X135200000Y-79050000D03*
X113250000Y-82450000D03*
X114750000Y-80200000D03*
X110400000Y-86400000D03*
X123850000Y-80450000D03*
X109500000Y-83200000D03*
X131175000Y-104350000D03*
X117700000Y-80300000D03*
X118900000Y-110450000D03*
X124550000Y-86300000D03*
X116200000Y-83200000D03*
X133275000Y-104925000D03*
X116650000Y-111200000D03*
X126800000Y-87750000D03*
X128850000Y-78250000D03*
X119650000Y-107450000D03*
X120400000Y-110450000D03*
X114400000Y-111200000D03*
X102550000Y-83950000D03*
X110250000Y-79450000D03*
X115500000Y-78000000D03*
X119650000Y-109700000D03*
X119650000Y-108200000D03*
X108100000Y-87900000D03*
X139400000Y-110200000D03*
X111900000Y-86400000D03*
X109650000Y-86400000D03*
X128900000Y-81200000D03*
X115900000Y-111950000D03*
X109600000Y-87900000D03*
X114400000Y-111950000D03*
X138650000Y-111700000D03*
X139800000Y-88100000D03*
X117700000Y-81050000D03*
X129550000Y-79000000D03*
X130300000Y-79000000D03*
X111750000Y-81700000D03*
X134400000Y-78300000D03*
X130300000Y-80450000D03*
X127400000Y-81200000D03*
X141650000Y-110200000D03*
X128850000Y-79750000D03*
X103450000Y-84450000D03*
X128150000Y-81200000D03*
X134400000Y-76800000D03*
X117700000Y-79550000D03*
X100650000Y-83400000D03*
X129550000Y-80450000D03*
X130300000Y-79700000D03*
X131950000Y-104850000D03*
X113650000Y-111200000D03*
X112600000Y-87900000D03*
X129550000Y-79700000D03*
X115900000Y-107450000D03*
X134400000Y-80500000D03*
X122350000Y-81200000D03*
X140150000Y-111700000D03*
X116950000Y-79550000D03*
X140900000Y-110950000D03*
X118900000Y-107450000D03*
X116950000Y-81800000D03*
X117700000Y-77300000D03*
X121600000Y-79750000D03*
X126050000Y-87000000D03*
X140900000Y-110200000D03*
X130525000Y-104850000D03*
X128900000Y-80450000D03*
X120400000Y-111950000D03*
X121600000Y-77500000D03*
X130300000Y-77500000D03*
X108000000Y-81700000D03*
X115900000Y-111200000D03*
X109500000Y-80950000D03*
X108150000Y-87150000D03*
X115500000Y-82450000D03*
X108000000Y-80950000D03*
X110400000Y-87150000D03*
X117400000Y-108950000D03*
X117700000Y-83200000D03*
X104750000Y-84400000D03*
X133275000Y-106200000D03*
X113250000Y-80950000D03*
X108000000Y-82450000D03*
X118450000Y-83200000D03*
X108750000Y-80950000D03*
X115500000Y-78750000D03*
X133650000Y-81250000D03*
X109650000Y-87150000D03*
X139400000Y-115450000D03*
X134400000Y-77550000D03*
X131050000Y-77500000D03*
X126050000Y-86300000D03*
X134400000Y-79750000D03*
X125300000Y-89200000D03*
X134400000Y-79050000D03*
X132650000Y-105600000D03*
X111100000Y-87900000D03*
X111000000Y-81700000D03*
X114750000Y-82450000D03*
X118900000Y-108950000D03*
X111750000Y-82450000D03*
X129550000Y-81200000D03*
X132650000Y-104325000D03*
X140150000Y-110950000D03*
X110250000Y-80950000D03*
X115500000Y-80200000D03*
X113250000Y-80200000D03*
X113250000Y-81700000D03*
X115500000Y-77250000D03*
X121150000Y-111950000D03*
X136400000Y-113950000D03*
X116650000Y-107450000D03*
X109500000Y-79450000D03*
X121600000Y-78250000D03*
X118150000Y-110450000D03*
X137150000Y-111700000D03*
X111150000Y-87150000D03*
X115150000Y-111950000D03*
X124550000Y-87750000D03*
X120100000Y-78250000D03*
X117700000Y-78800000D03*
X104850000Y-82900000D03*
X125800000Y-81250000D03*
X102850000Y-84450000D03*
X113650000Y-108200000D03*
X114000000Y-81700000D03*
X126650000Y-81200000D03*
X128850000Y-79000000D03*
X108750000Y-83200000D03*
X133650000Y-80500000D03*
X114000000Y-82450000D03*
X135200000Y-78300000D03*
X108900000Y-86400000D03*
X111000000Y-83200000D03*
X116200000Y-78050000D03*
X118900000Y-108200000D03*
X121600000Y-80450000D03*
X114000000Y-83200000D03*
X103150000Y-83950000D03*
X101950000Y-83950000D03*
X117400000Y-108200000D03*
X117400000Y-111200000D03*
X120400000Y-107450000D03*
X116200000Y-81050000D03*
X133650000Y-76800000D03*
X112500000Y-83200000D03*
X120850000Y-79000000D03*
X131175000Y-105600000D03*
X117400000Y-110450000D03*
X118150000Y-111200000D03*
X123100000Y-81200000D03*
X116950000Y-83200000D03*
X135200000Y-79750000D03*
X112650000Y-87150000D03*
X136400000Y-114700000D03*
X120100000Y-79750000D03*
X118150000Y-108950000D03*
X125300000Y-87000000D03*
X111150000Y-86400000D03*
X120100000Y-79000000D03*
X117400000Y-109700000D03*
X126650000Y-80450000D03*
X120850000Y-78250000D03*
X116200000Y-81800000D03*
X118900000Y-109700000D03*
X115500000Y-80950000D03*
X130300000Y-81200000D03*
X114400000Y-107450000D03*
X139400000Y-111700000D03*
X108750000Y-81700000D03*
X115150000Y-111200000D03*
X104850000Y-83450000D03*
X121900000Y-111200000D03*
X125300000Y-88450000D03*
X124550000Y-87000000D03*
X126800000Y-86300000D03*
X135200000Y-77550000D03*
X116950000Y-82450000D03*
X118150000Y-109700000D03*
X115500000Y-81700000D03*
X139750000Y-95050000D03*
X119650000Y-111950000D03*
X124850000Y-81250000D03*
X108750000Y-80150000D03*
X116950000Y-77300000D03*
X110350000Y-87900000D03*
X137000000Y-105350000D03*
X120400000Y-108950000D03*
X118150000Y-111950000D03*
X133650000Y-79050000D03*
X109500000Y-82450000D03*
X130300000Y-78250000D03*
X109500000Y-80150000D03*
X120850000Y-79750000D03*
X140150000Y-115450000D03*
X136400000Y-113200000D03*
X140900000Y-111700000D03*
X108750000Y-82450000D03*
X108750000Y-79450000D03*
X120100000Y-81250000D03*
X128850000Y-77500000D03*
X121150000Y-111200000D03*
X141650000Y-111700000D03*
X137900000Y-115450000D03*
X120400000Y-109700000D03*
X117400000Y-111950000D03*
X122350000Y-80450000D03*
X114000000Y-80950000D03*
X103750000Y-83950000D03*
X116950000Y-78050000D03*
X116950000Y-81050000D03*
X140150000Y-110200000D03*
X126050000Y-87750000D03*
X120400000Y-111200000D03*
X116950000Y-78800000D03*
X110250000Y-83200000D03*
X125300000Y-87750000D03*
X127400000Y-80450000D03*
X101650000Y-84450000D03*
X131050000Y-81200000D03*
X111850000Y-87900000D03*
X123850000Y-81200000D03*
X131050000Y-80450000D03*
X117700000Y-78050000D03*
X105100000Y-83950000D03*
X114750000Y-81700000D03*
X101350000Y-83950000D03*
X119650000Y-110450000D03*
X126800000Y-87000000D03*
X142400000Y-110200000D03*
X110250000Y-82450000D03*
X116950000Y-80300000D03*
X112500000Y-82450000D03*
X118900000Y-111950000D03*
X128150000Y-80450000D03*
X108850000Y-87900000D03*
X135200000Y-81250000D03*
X117400000Y-107450000D03*
X137150000Y-115450000D03*
X142400000Y-110950000D03*
X111900000Y-87150000D03*
X108150000Y-86400000D03*
X115500000Y-83200000D03*
X116200000Y-78800000D03*
X120850000Y-80500000D03*
X136400000Y-112450000D03*
X131050000Y-79700000D03*
X104400000Y-83950000D03*
X113250000Y-83200000D03*
X133650000Y-79750000D03*
X100650000Y-83950000D03*
X111000000Y-82450000D03*
X108000000Y-80150000D03*
X118150000Y-108200000D03*
X117700000Y-81800000D03*
X119650000Y-108950000D03*
X120100000Y-80500000D03*
X117700000Y-82450000D03*
X118150000Y-107450000D03*
X119650000Y-111200000D03*
X115150000Y-107450000D03*
X121600000Y-79000000D03*
X113650000Y-108950000D03*
X120400000Y-108200000D03*
X101050000Y-84450000D03*
X135200000Y-76800000D03*
X116200000Y-77300000D03*
X134400000Y-81250000D03*
X116200000Y-79550000D03*
X130525000Y-106200000D03*
X120850000Y-77500000D03*
X131050000Y-78250000D03*
X112500000Y-81700000D03*
X135200000Y-80500000D03*
X109500000Y-81700000D03*
X113650000Y-110450000D03*
X141650000Y-110950000D03*
X112650000Y-86400000D03*
X110250000Y-80150000D03*
X113650000Y-111950000D03*
X137900000Y-111700000D03*
X133650000Y-78300000D03*
X120100000Y-77500000D03*
X116200000Y-80300000D03*
X110250000Y-81700000D03*
X129550000Y-77500000D03*
X131050000Y-79000000D03*
X121600000Y-81200000D03*
X102250000Y-84450000D03*
X108900000Y-87150000D03*
X118900000Y-111200000D03*
X108000000Y-79450000D03*
X133650000Y-77550000D03*
X131050000Y-76750000D03*
G04 #@! TO.N,/SHDN*
X124550000Y-105525000D03*
X131264579Y-114187851D03*
G04 #@! TO.N,+3.3V*
X133812500Y-118987500D03*
X132800000Y-119280000D03*
X124132500Y-116807500D03*
X131850000Y-127200000D03*
X122150000Y-114500000D03*
X124672500Y-117347500D03*
X132400000Y-127200000D03*
X117900000Y-114400000D03*
X127650000Y-140200000D03*
X119950000Y-113700000D03*
X134400000Y-118400000D03*
X121850000Y-115100000D03*
X142425000Y-136650000D03*
X129650000Y-130800000D03*
X119750000Y-114400000D03*
X121350000Y-113700000D03*
X142450000Y-140250000D03*
X120650000Y-113700000D03*
X131350000Y-127200000D03*
X129725000Y-128825000D03*
X129050000Y-128825000D03*
X122556290Y-134471268D03*
X121050000Y-115100000D03*
X128825000Y-130775000D03*
X122050000Y-113800000D03*
X136725000Y-91825000D03*
X123602500Y-116277500D03*
G04 #@! TO.N,/CS*
X119197735Y-127864804D03*
X129409775Y-110380917D03*
G04 #@! TO.N,/Isense*
X100650000Y-77400000D03*
X115500000Y-73950000D03*
X128600000Y-74600000D03*
X100850000Y-76200000D03*
X101900000Y-73550000D03*
X105175000Y-78875000D03*
X129050000Y-73950000D03*
X100850000Y-74950000D03*
X100650000Y-76800000D03*
X127050000Y-73950000D03*
X129550000Y-73300000D03*
X101450000Y-76200000D03*
X103750000Y-76150000D03*
X114550000Y-73950000D03*
X114050000Y-73300000D03*
X129550000Y-74600000D03*
X129850000Y-73950000D03*
X100650000Y-77950000D03*
X104300000Y-76150000D03*
X102850000Y-74950000D03*
X127550000Y-74600000D03*
X127550000Y-73300000D03*
X128600000Y-73300000D03*
X116050000Y-73300000D03*
X100850000Y-74250000D03*
X116400000Y-73950000D03*
X115100000Y-73300000D03*
X102650000Y-76200000D03*
X102000000Y-76200000D03*
X102850000Y-73550000D03*
X102850000Y-74250000D03*
X134625000Y-98075000D03*
X128100000Y-73950000D03*
X114050000Y-74650000D03*
X101900000Y-74950000D03*
X113500000Y-73950000D03*
X115100000Y-74650000D03*
X101900000Y-74250000D03*
X116050000Y-74650000D03*
X103150000Y-76200000D03*
X100850000Y-73550000D03*
G04 #@! TO.N,/VLSG*
X130725000Y-97950000D03*
X117775000Y-74450000D03*
G04 #@! TO.N,/V*
X116450000Y-64025000D03*
D21*
X116150000Y-70200000D03*
D20*
X117350000Y-62825000D03*
X114350000Y-64625000D03*
X113500000Y-63450000D03*
X115250000Y-62175000D03*
X116900000Y-64625000D03*
X117300000Y-65275000D03*
X116100000Y-60975000D03*
X117800000Y-60975000D03*
X113500000Y-64650000D03*
X114750000Y-64025000D03*
X113900000Y-65300000D03*
X115600000Y-64025000D03*
D21*
X118150000Y-69200000D03*
D20*
X118150000Y-64025000D03*
D21*
X117650000Y-70200000D03*
D20*
X117750000Y-63425000D03*
X114800000Y-62825000D03*
X116450000Y-65275000D03*
X117300000Y-64025000D03*
X115650000Y-62825000D03*
X116500000Y-62825000D03*
X113950000Y-62850000D03*
D21*
X114650000Y-68200000D03*
D20*
X115650000Y-61575000D03*
X114400000Y-60975000D03*
X114350000Y-63425000D03*
X115600000Y-65275000D03*
X114800000Y-61575000D03*
X114400000Y-62175000D03*
X116050000Y-64625000D03*
X116050000Y-63425000D03*
X116100000Y-62175000D03*
X114750000Y-65275000D03*
X118150000Y-65275000D03*
D21*
X115150000Y-69200000D03*
X113650000Y-69200000D03*
D20*
X116950000Y-62175000D03*
X117750000Y-64625000D03*
D21*
X115150000Y-67200000D03*
D20*
X115200000Y-64625000D03*
D21*
X118150000Y-67200000D03*
D20*
X131350000Y-98650000D03*
X113550000Y-62200000D03*
X117800000Y-62175000D03*
D21*
X116650000Y-67200000D03*
D20*
X113950000Y-61600000D03*
X118200000Y-61575000D03*
D21*
X116150000Y-66200000D03*
D20*
X116500000Y-61575000D03*
X113550000Y-61000000D03*
X115250000Y-60975000D03*
X117350000Y-61575000D03*
X113900000Y-64050000D03*
D21*
X117650000Y-66200000D03*
X114650000Y-66200000D03*
X114650000Y-70200000D03*
X113650000Y-67200000D03*
D20*
X118574586Y-74424207D03*
X118200000Y-62825000D03*
D21*
X116150000Y-68200000D03*
D20*
X115200000Y-63425000D03*
D21*
X116650000Y-69200000D03*
X117650000Y-68200000D03*
D20*
X116950000Y-60975000D03*
X116900000Y-63425000D03*
G04 #@! TO.N,/VSHG*
X132025000Y-98011042D03*
X119435603Y-74420503D03*
G04 #@! TO.N,Net-(J5-CC1)*
X141750000Y-129100000D03*
X138588513Y-129627054D03*
G04 #@! TO.N,/ULSG*
X132550000Y-98750000D03*
X131500000Y-74425000D03*
D21*
G04 #@! TO.N,/U*
X131150000Y-70200000D03*
D20*
X129900000Y-64000000D03*
X127350000Y-64025000D03*
X129500000Y-63400000D03*
D21*
X128150000Y-68200000D03*
D20*
X130400000Y-62150000D03*
X128200000Y-65250000D03*
D21*
X127150000Y-67200000D03*
X131650000Y-67200000D03*
D20*
X131200000Y-64600000D03*
X131250000Y-60950000D03*
X128700000Y-62150000D03*
X127000000Y-60975000D03*
D21*
X130150000Y-67200000D03*
D20*
X130800000Y-61550000D03*
X129050000Y-64000000D03*
X131650000Y-61550000D03*
X129050000Y-65250000D03*
X130350000Y-64600000D03*
X131200000Y-63400000D03*
X130350000Y-63400000D03*
D21*
X128650000Y-69200000D03*
D20*
X126950000Y-64625000D03*
X128250000Y-61550000D03*
X129550000Y-62150000D03*
X129100000Y-61550000D03*
X131600000Y-64000000D03*
X127350000Y-65275000D03*
X130400000Y-60950000D03*
X129950000Y-61550000D03*
X129100000Y-62800000D03*
X128250000Y-62800000D03*
X128200000Y-64000000D03*
X129500000Y-64600000D03*
X131600000Y-65250000D03*
D21*
X129650000Y-66200000D03*
D20*
X128650000Y-64600000D03*
D21*
X131150000Y-68200000D03*
D20*
X131650000Y-62800000D03*
X130750000Y-65250000D03*
X130750000Y-64000000D03*
X127800000Y-64600000D03*
D21*
X128150000Y-70200000D03*
D20*
X129550000Y-60950000D03*
X131250000Y-62150000D03*
X127400000Y-62825000D03*
X127850000Y-62150000D03*
X126950000Y-63425000D03*
X128650000Y-63400000D03*
X127850000Y-60950000D03*
X128700000Y-60950000D03*
X130800000Y-62800000D03*
D21*
X128650000Y-67200000D03*
X127150000Y-69200000D03*
X131650000Y-69200000D03*
D20*
X129900000Y-65250000D03*
X129950000Y-62800000D03*
X127400000Y-61575000D03*
D21*
X129650000Y-68200000D03*
D20*
X133325000Y-97925000D03*
D21*
X128150000Y-66200000D03*
D20*
X132299558Y-74451652D03*
X127000000Y-62175000D03*
D21*
X130150000Y-69200000D03*
X129650000Y-70200000D03*
X131150000Y-66200000D03*
D20*
X127800000Y-63400000D03*
G04 #@! TO.N,Vusb*
X126675000Y-95725000D03*
X104550000Y-128825000D03*
G04 #@! TO.N,Net-(J5-CC2)*
X141750000Y-123900000D03*
X141979779Y-125800000D03*
G04 #@! TO.N,/CLKIN*
X138250000Y-122975000D03*
X139100000Y-119275000D03*
G04 #@! TO.N,/BOOT*
X133450000Y-123700000D03*
X127472155Y-119572155D03*
G04 #@! TO.N,/USHG*
X133750074Y-98801991D03*
X133098890Y-74418899D03*
G04 #@! TO.N,/LOCKN*
X140645391Y-120499455D03*
X132050000Y-112378403D03*
G04 #@! TO.N,/FG*
X132125000Y-110250000D03*
X116100000Y-126150000D03*
G04 #@! TO.N,/MISO*
X131431615Y-110731115D03*
X126325000Y-124950000D03*
X123179676Y-129199999D03*
X120750000Y-131800000D03*
G04 #@! TO.N,/DIRECTION*
X120750000Y-130200000D03*
X127566359Y-127807853D03*
X136250000Y-110025000D03*
X125875000Y-128600000D03*
G04 #@! TO.N,/SWDIO*
X131250000Y-115400000D03*
X124150003Y-140500000D03*
G04 #@! TO.N,/SWCLK*
X123350000Y-140500000D03*
X130650000Y-114700000D03*
G04 #@! TO.N,/RESET*
X128900000Y-119500000D03*
X137850006Y-110025000D03*
X132732107Y-116582107D03*
G04 #@! TO.N,/BRAKE*
X130668534Y-113500000D03*
X134250000Y-109688235D03*
G04 #@! TO.N,/FAULTN*
X140675000Y-119700000D03*
X131275115Y-112978403D03*
X132703115Y-110802976D03*
G04 #@! TO.N,/ENABLE_DRV*
X137021078Y-109428922D03*
X126485293Y-119580373D03*
G04 #@! TO.N,/SCLK*
X122298600Y-130800000D03*
X128700000Y-110750000D03*
G04 #@! TO.N,/MOSI*
X123972182Y-130790000D03*
X130756140Y-110302469D03*
G04 #@! TO.N,/WSHG*
X129975000Y-98550000D03*
X106825003Y-74425000D03*
G04 #@! TO.N,/W*
X101275000Y-64050000D03*
D21*
X101150000Y-70200000D03*
D20*
X101775000Y-61000000D03*
X103875000Y-62850000D03*
X101775000Y-62200000D03*
X101725000Y-63450000D03*
X100025000Y-63475000D03*
X104275000Y-64650000D03*
X103475000Y-62200000D03*
D21*
X100150000Y-69200000D03*
X104150000Y-70200000D03*
X102650000Y-68200000D03*
X103150000Y-67200000D03*
D20*
X103025000Y-61600000D03*
X100075000Y-62225000D03*
X100875000Y-63450000D03*
D21*
X103150000Y-69200000D03*
D20*
X100075000Y-61025000D03*
D21*
X101650000Y-67200000D03*
D20*
X103475000Y-61000000D03*
X102575000Y-63450000D03*
X102975000Y-65300000D03*
X100425000Y-65325000D03*
X104675000Y-65300000D03*
X101325000Y-61600000D03*
X101325000Y-62850000D03*
D21*
X101150000Y-66200000D03*
D20*
X102975000Y-64050000D03*
X102625000Y-61000000D03*
X103825000Y-65300000D03*
X103825000Y-64050000D03*
X103875000Y-61600000D03*
D21*
X102650000Y-70200000D03*
D20*
X104725000Y-61600000D03*
X102575000Y-64650000D03*
D21*
X101650000Y-69200000D03*
D20*
X102175000Y-61600000D03*
X100925000Y-62200000D03*
X100875000Y-64650000D03*
X106025000Y-74425000D03*
D21*
X102650000Y-66200000D03*
D20*
X100025000Y-64675000D03*
D21*
X104150000Y-66200000D03*
X104150000Y-68200000D03*
D20*
X104725000Y-62850000D03*
D21*
X104650000Y-67200000D03*
D20*
X103425000Y-63450000D03*
X104675000Y-64050000D03*
D21*
X101150000Y-68200000D03*
D20*
X102125000Y-64050000D03*
X129261765Y-97986765D03*
D21*
X104650000Y-69200000D03*
D20*
X102175000Y-62850000D03*
D21*
X100150000Y-67200000D03*
D20*
X102625000Y-62200000D03*
X102125000Y-65300000D03*
X100925000Y-61000000D03*
X103425000Y-64650000D03*
X101725000Y-64650000D03*
X100475000Y-62875000D03*
X100425000Y-64075000D03*
X101275000Y-65300000D03*
X103025000Y-62850000D03*
X100475000Y-61625000D03*
X104325000Y-62200000D03*
X104275000Y-63450000D03*
X104325000Y-61000000D03*
G04 #@! TO.N,/WLSG*
X129050000Y-99775000D03*
X105225546Y-74395391D03*
G04 #@! TD*
G04 #@! TO.N,+3.3V*
D22*
X127900000Y-102850000D02*
X127425000Y-103325000D01*
X136775000Y-96675000D02*
X136525000Y-96925000D01*
X122184314Y-112700000D02*
X119134314Y-112700000D01*
X122775000Y-111460785D02*
X122500000Y-111735785D01*
X123075000Y-103325000D02*
X122775000Y-103625001D01*
X122500000Y-111735785D02*
X122500000Y-112384314D01*
X129475000Y-96925000D02*
X127900000Y-98500000D01*
X127900000Y-98500000D02*
X127900000Y-102850000D01*
X119134314Y-112700000D02*
X118100000Y-113734314D01*
X136725000Y-91825000D02*
X136775000Y-91875000D01*
X136525000Y-96925000D02*
X129475000Y-96925000D01*
X118100000Y-114400000D02*
X117900000Y-114400000D01*
X122775000Y-103625001D02*
X122775000Y-111460785D01*
X118100000Y-113734314D02*
X118100000Y-114400000D01*
X122500000Y-112384314D02*
X122184314Y-112700000D01*
X127425000Y-103325000D02*
X123075000Y-103325000D01*
X136775000Y-91875000D02*
X136775000Y-96675000D01*
G04 #@! TO.N,/CS*
X123964215Y-114034314D02*
X121748529Y-116250000D01*
X119300000Y-126400000D02*
X119100000Y-126600000D01*
X126089215Y-114034314D02*
X123964215Y-114034314D01*
X128000000Y-110100000D02*
X128000000Y-111426471D01*
X128100000Y-112023529D02*
X126089215Y-114034314D01*
X128100000Y-111526471D02*
X128100000Y-112023529D01*
X119100000Y-127767069D02*
X119197735Y-127864804D01*
X121748529Y-116250000D02*
X120450000Y-116250000D01*
X129409775Y-110009775D02*
X129250000Y-109850000D01*
X120450000Y-116250000D02*
X119300000Y-117400000D01*
X119100000Y-126600000D02*
X119100000Y-127767069D01*
X129409775Y-110380917D02*
X129409775Y-110009775D01*
X119300000Y-117400000D02*
X119300000Y-126400000D01*
X129250000Y-109850000D02*
X128250000Y-109850000D01*
X128250000Y-109850000D02*
X128000000Y-110100000D01*
X128000000Y-111426471D02*
X128100000Y-111526471D01*
G04 #@! TO.N,/LOCKN*
X140650000Y-118750000D02*
X140725000Y-118825000D01*
X141300000Y-120250000D02*
X141050545Y-120499455D01*
X134050000Y-112650000D02*
X134050000Y-116384314D01*
X141050545Y-120499455D02*
X140645391Y-120499455D01*
X141050000Y-118825000D02*
X141300000Y-119075000D01*
X132050000Y-112378403D02*
X133778403Y-112378403D01*
X140645391Y-120499455D02*
X140625926Y-120499455D01*
X139665685Y-116600000D02*
X140650000Y-117584314D01*
X140725000Y-118825000D02*
X141050000Y-118825000D01*
X133778403Y-112378403D02*
X134050000Y-112650000D01*
X140650000Y-117584314D02*
X140650000Y-118750000D01*
X134050000Y-116384314D02*
X134265686Y-116600000D01*
X141300000Y-119075000D02*
X141300000Y-120250000D01*
X134265686Y-116600000D02*
X139665685Y-116600000D01*
G04 #@! TO.N,/FG*
X114850000Y-117550000D02*
X115500000Y-116900000D01*
X127350000Y-109700000D02*
X127600000Y-109450000D01*
X118100000Y-116900000D02*
X118500000Y-116500000D01*
X127600000Y-109450000D02*
X131950000Y-109450000D01*
X114850000Y-125500000D02*
X114850000Y-117550000D01*
X123501471Y-111300000D02*
X127000000Y-111300000D01*
X116100000Y-126150000D02*
X115500000Y-126150000D01*
X127350000Y-110950000D02*
X127350000Y-109700000D01*
X118500000Y-116500000D02*
X118500000Y-113900000D01*
X132125000Y-109625000D02*
X132125000Y-110250000D01*
X115500000Y-116900000D02*
X118100000Y-116900000D01*
X131950000Y-109450000D02*
X132125000Y-109625000D01*
X122350000Y-113100000D02*
X122900000Y-112550000D01*
X127000000Y-111300000D02*
X127350000Y-110950000D01*
X122900000Y-111901471D02*
X123501471Y-111300000D01*
X115500000Y-126150000D02*
X114850000Y-125500000D01*
X119300000Y-113100000D02*
X122350000Y-113100000D01*
X118500000Y-113900000D02*
X119300000Y-113100000D01*
X122900000Y-112550000D02*
X122900000Y-111901471D01*
G04 #@! TO.N,/MISO*
X129500000Y-112320586D02*
X125885293Y-115935293D01*
X131176023Y-110731115D02*
X131156140Y-110750998D01*
X131156140Y-110750998D02*
X131156140Y-111137487D01*
X125885293Y-124885293D02*
X125950000Y-124950000D01*
X129500000Y-111965686D02*
X129500000Y-112320586D01*
X125885293Y-115935293D02*
X125885293Y-124885293D01*
X131156140Y-111137487D02*
X130493626Y-111800000D01*
X131431615Y-110731115D02*
X131176023Y-110731115D01*
X129665686Y-111800000D02*
X129500000Y-111965686D01*
X130493626Y-111800000D02*
X129665686Y-111800000D01*
X125950000Y-124950000D02*
X126325000Y-124950000D01*
G04 #@! TO.N,/FAULTN*
X132400000Y-113200000D02*
X132400000Y-114250000D01*
X132200000Y-113000000D02*
X132400000Y-113200000D01*
X133650000Y-114900000D02*
X133650000Y-116550000D01*
X140250000Y-117750000D02*
X140250000Y-119275000D01*
X139500000Y-117000000D02*
X140250000Y-117750000D01*
X140250000Y-119275000D02*
X140675000Y-119700000D01*
X131275115Y-112978403D02*
X131296712Y-113000000D01*
X132650000Y-114500000D02*
X133250000Y-114500000D01*
X132400000Y-114250000D02*
X132650000Y-114500000D01*
X131296712Y-113000000D02*
X132200000Y-113000000D01*
X133650000Y-116550000D02*
X134100000Y-117000000D01*
X133250000Y-114500000D02*
X133650000Y-114900000D01*
X134100000Y-117000000D02*
X139500000Y-117000000D01*
G04 #@! TO.N,/SCLK*
X128700000Y-111989214D02*
X126254900Y-114434314D01*
X119700000Y-127284315D02*
X121500000Y-129084315D01*
X121914215Y-116650000D02*
X120615686Y-116650000D01*
X124129901Y-114434314D02*
X121914215Y-116650000D01*
X121500000Y-129084315D02*
X121500000Y-130001400D01*
X126254900Y-114434314D02*
X124129901Y-114434314D01*
X120615686Y-116650000D02*
X119700000Y-117565686D01*
X119700000Y-117565686D02*
X119700000Y-127284315D01*
X121500000Y-130001400D02*
X122298600Y-130800000D01*
X128700000Y-110750000D02*
X128700000Y-111989214D01*
G04 #@! TO.N,/MOSI*
X126627450Y-114627450D02*
X126420585Y-114834314D01*
X125450000Y-115804900D02*
X126627450Y-114627450D01*
X129100000Y-112154900D02*
X126627450Y-114627450D01*
X130707996Y-111019947D02*
X130338971Y-111388971D01*
X130756140Y-110971801D02*
X130327941Y-111400000D01*
X129500000Y-111400000D02*
X129100000Y-111800000D01*
X130756140Y-110302469D02*
X130756140Y-110971801D01*
X123950000Y-130767818D02*
X123950000Y-121700000D01*
X130707996Y-110522889D02*
X130707996Y-111019947D01*
X123972182Y-130790000D02*
X123950000Y-130767818D01*
X130621858Y-110436751D02*
X130707996Y-110522889D01*
X123950000Y-121700000D02*
X125450000Y-120200000D01*
X130327941Y-111400000D02*
X129500000Y-111400000D01*
X129100000Y-111800000D02*
X129100000Y-112154900D01*
X125450000Y-120200000D02*
X125450000Y-115804900D01*
X130756140Y-110302469D02*
X130621858Y-110436751D01*
G04 #@! TD*
G04 #@! TA.AperFunction,Conductor*
G04 #@! TO.N,/Isense*
G36*
X110770594Y-72016613D02*
G01*
X110787000Y-72026085D01*
X110856814Y-72066392D01*
X110984108Y-72100500D01*
X110984110Y-72100500D01*
X111115890Y-72100500D01*
X111115892Y-72100500D01*
X111243186Y-72066392D01*
X111243190Y-72066390D01*
X111253237Y-72060588D01*
X111313000Y-72026084D01*
X111380898Y-72009611D01*
X111436998Y-72026084D01*
X111475876Y-72048530D01*
X111506811Y-72066391D01*
X111506813Y-72066391D01*
X111506814Y-72066392D01*
X111634108Y-72100500D01*
X111634110Y-72100500D01*
X111765890Y-72100500D01*
X111765892Y-72100500D01*
X111893186Y-72066392D01*
X111893190Y-72066390D01*
X111903237Y-72060588D01*
X111963000Y-72026084D01*
X112030898Y-72009611D01*
X112086998Y-72026084D01*
X112125876Y-72048530D01*
X112156811Y-72066391D01*
X112156813Y-72066391D01*
X112156814Y-72066392D01*
X112284108Y-72100500D01*
X112284110Y-72100500D01*
X112415890Y-72100500D01*
X112415892Y-72100500D01*
X112543186Y-72066392D01*
X112613000Y-72026085D01*
X112629406Y-72016613D01*
X112691406Y-72000000D01*
X124158594Y-72000000D01*
X124220594Y-72016613D01*
X124237000Y-72026085D01*
X124306814Y-72066392D01*
X124434108Y-72100500D01*
X124434110Y-72100500D01*
X124565890Y-72100500D01*
X124565892Y-72100500D01*
X124693186Y-72066392D01*
X124693190Y-72066390D01*
X124703237Y-72060588D01*
X124763000Y-72026084D01*
X124830898Y-72009611D01*
X124886998Y-72026084D01*
X124925876Y-72048530D01*
X124956811Y-72066391D01*
X124956813Y-72066391D01*
X124956814Y-72066392D01*
X125084108Y-72100500D01*
X125084110Y-72100500D01*
X125215890Y-72100500D01*
X125215892Y-72100500D01*
X125343186Y-72066392D01*
X125343190Y-72066390D01*
X125353237Y-72060588D01*
X125413000Y-72026084D01*
X125480898Y-72009611D01*
X125536998Y-72026084D01*
X125575876Y-72048530D01*
X125606811Y-72066391D01*
X125606813Y-72066391D01*
X125606814Y-72066392D01*
X125734108Y-72100500D01*
X125734110Y-72100500D01*
X125865890Y-72100500D01*
X125865892Y-72100500D01*
X125993186Y-72066392D01*
X126063000Y-72026085D01*
X126079406Y-72016613D01*
X126141406Y-72000000D01*
X129813581Y-72000000D01*
X129880620Y-72019685D01*
X129880635Y-72019694D01*
X130493055Y-72413392D01*
X130538801Y-72466201D01*
X130550000Y-72517697D01*
X130550000Y-75541386D01*
X130530315Y-75608425D01*
X130504708Y-75637204D01*
X129184309Y-76721818D01*
X129120011Y-76749160D01*
X129105601Y-76750000D01*
X115567758Y-76750000D01*
X115565892Y-76749500D01*
X115434108Y-76749500D01*
X115432242Y-76750000D01*
X115050000Y-76750000D01*
X113951784Y-78626120D01*
X113885917Y-78738642D01*
X113835062Y-78786554D01*
X113778903Y-78800000D01*
X107900000Y-78800000D01*
X106736995Y-80108381D01*
X106677744Y-80145409D01*
X106644316Y-80150000D01*
X100583952Y-80150000D01*
X100516913Y-80130315D01*
X100471158Y-80077511D01*
X100468821Y-80072052D01*
X99908869Y-78672172D01*
X99900000Y-78626120D01*
X99900000Y-74329499D01*
X104725046Y-74329499D01*
X104725046Y-74461283D01*
X104732980Y-74490892D01*
X104759154Y-74588578D01*
X104773652Y-74613689D01*
X104825046Y-74702705D01*
X104918232Y-74795891D01*
X105032360Y-74861783D01*
X105159654Y-74895891D01*
X105159656Y-74895891D01*
X105291436Y-74895891D01*
X105291438Y-74895891D01*
X105418732Y-74861783D01*
X105532860Y-74795891D01*
X105532867Y-74795883D01*
X105534410Y-74794701D01*
X105535954Y-74794103D01*
X105539898Y-74791827D01*
X105540253Y-74792441D01*
X105599578Y-74769505D01*
X105668023Y-74783542D01*
X105697580Y-74805394D01*
X105717686Y-74825500D01*
X105831814Y-74891392D01*
X105959108Y-74925500D01*
X105959110Y-74925500D01*
X106090890Y-74925500D01*
X106090892Y-74925500D01*
X106218186Y-74891392D01*
X106332314Y-74825500D01*
X106337314Y-74820499D01*
X106398632Y-74787010D01*
X106468324Y-74791988D01*
X106512682Y-74820493D01*
X106517689Y-74825500D01*
X106631817Y-74891392D01*
X106759111Y-74925500D01*
X106759113Y-74925500D01*
X106890893Y-74925500D01*
X106890895Y-74925500D01*
X107018189Y-74891392D01*
X107132317Y-74825500D01*
X107225503Y-74732314D01*
X107291395Y-74618186D01*
X107325503Y-74490892D01*
X107325503Y-74384108D01*
X117274500Y-74384108D01*
X117274500Y-74515891D01*
X117308608Y-74643187D01*
X117328530Y-74677692D01*
X117374500Y-74757314D01*
X117467686Y-74850500D01*
X117581814Y-74916392D01*
X117709108Y-74950500D01*
X117709110Y-74950500D01*
X117840890Y-74950500D01*
X117840892Y-74950500D01*
X117968186Y-74916392D01*
X118082314Y-74850500D01*
X118100318Y-74832496D01*
X118161641Y-74799011D01*
X118231333Y-74803995D01*
X118263486Y-74821802D01*
X118267268Y-74824704D01*
X118267270Y-74824705D01*
X118267272Y-74824707D01*
X118360510Y-74878538D01*
X118374984Y-74886895D01*
X118381400Y-74890599D01*
X118508694Y-74924707D01*
X118508696Y-74924707D01*
X118640476Y-74924707D01*
X118640478Y-74924707D01*
X118767772Y-74890599D01*
X118881900Y-74824707D01*
X118919266Y-74787340D01*
X118980586Y-74753856D01*
X119050278Y-74758840D01*
X119094627Y-74787341D01*
X119128289Y-74821003D01*
X119242417Y-74886895D01*
X119369711Y-74921003D01*
X119369713Y-74921003D01*
X119501493Y-74921003D01*
X119501495Y-74921003D01*
X119628789Y-74886895D01*
X119742917Y-74821003D01*
X119836103Y-74727817D01*
X119901995Y-74613689D01*
X119936103Y-74486395D01*
X119936103Y-74354611D01*
X119901995Y-74227317D01*
X119836103Y-74113189D01*
X119742917Y-74020003D01*
X119679879Y-73983608D01*
X119628790Y-73954111D01*
X119565142Y-73937057D01*
X119501495Y-73920003D01*
X119369711Y-73920003D01*
X119242415Y-73954111D01*
X119128289Y-74020003D01*
X119128285Y-74020006D01*
X119090922Y-74057369D01*
X119029599Y-74090854D01*
X118959907Y-74085868D01*
X118915561Y-74057368D01*
X118881902Y-74023709D01*
X118881900Y-74023707D01*
X118769146Y-73958608D01*
X118767773Y-73957815D01*
X118660228Y-73928999D01*
X118640478Y-73923707D01*
X118508694Y-73923707D01*
X118381398Y-73957815D01*
X118267272Y-74023707D01*
X118267268Y-74023710D01*
X118249265Y-74041713D01*
X118187942Y-74075197D01*
X118118250Y-74070211D01*
X118086094Y-74052401D01*
X118082316Y-74049501D01*
X117968187Y-73983608D01*
X117904539Y-73966554D01*
X117840892Y-73949500D01*
X117709108Y-73949500D01*
X117581812Y-73983608D01*
X117467686Y-74049500D01*
X117467683Y-74049502D01*
X117374502Y-74142683D01*
X117374500Y-74142686D01*
X117308608Y-74256812D01*
X117274500Y-74384108D01*
X107325503Y-74384108D01*
X107325503Y-74359108D01*
X107291395Y-74231814D01*
X107288797Y-74227315D01*
X107253984Y-74167017D01*
X107225503Y-74117686D01*
X107132317Y-74024500D01*
X107061490Y-73983608D01*
X107018190Y-73958608D01*
X106954542Y-73941554D01*
X106890895Y-73924500D01*
X106759111Y-73924500D01*
X106631816Y-73958608D01*
X106588516Y-73983608D01*
X106517689Y-74024500D01*
X106517687Y-74024501D01*
X106517685Y-74024503D01*
X106512678Y-74029510D01*
X106451353Y-74062992D01*
X106381662Y-74058005D01*
X106337320Y-74029506D01*
X106332316Y-74024502D01*
X106332314Y-74024500D01*
X106261487Y-73983608D01*
X106218187Y-73958608D01*
X106154539Y-73941554D01*
X106090892Y-73924500D01*
X105959108Y-73924500D01*
X105831813Y-73958608D01*
X105768970Y-73994891D01*
X105717686Y-74024500D01*
X105717685Y-74024500D01*
X105717678Y-74024505D01*
X105716116Y-74025704D01*
X105714563Y-74026303D01*
X105710649Y-74028564D01*
X105710296Y-74027952D01*
X105650942Y-74050887D01*
X105582500Y-74036837D01*
X105552965Y-74014996D01*
X105532862Y-73994893D01*
X105532860Y-73994891D01*
X105454241Y-73949500D01*
X105418733Y-73928999D01*
X105355085Y-73911945D01*
X105291438Y-73894891D01*
X105159654Y-73894891D01*
X105032358Y-73928999D01*
X104918232Y-73994891D01*
X104918229Y-73994893D01*
X104825048Y-74088074D01*
X104825046Y-74088077D01*
X104759154Y-74202203D01*
X104725046Y-74329499D01*
X99900000Y-74329499D01*
X99900000Y-72919779D01*
X99919685Y-72852740D01*
X99959644Y-72813786D01*
X101270343Y-72018005D01*
X101334696Y-72000000D01*
X110708594Y-72000000D01*
X110770594Y-72016613D01*
G37*
G04 #@! TD.AperFunction*
G04 #@! TD*
M02*
