G04 #@! TF.GenerationSoftware,KiCad,Pcbnew,10.0.1*
G04 #@! TF.CreationDate,2026-07-19T18:32:22+01:00*
G04 #@! TF.ProjectId,bldc&foc motor controller,626c6463-2666-46f6-9320-6d6f746f7220,rev?*
G04 #@! TF.SameCoordinates,Original*
G04 #@! TF.FileFunction,Paste,Top*
G04 #@! TF.FilePolarity,Positive*
%FSLAX46Y46*%
G04 Gerber Fmt 4.6, Leading zero omitted, Abs format (unit mm)*
G04 Created by KiCad (PCBNEW 10.0.1) date 2026-07-19 18:32:22*
%MOMM*%
%LPD*%
G01*
G04 APERTURE LIST*
G04 Aperture macros list*
%AMRoundRect*
0 Rectangle with rounded corners*
0 $1 Rounding radius*
0 $2 $3 $4 $5 $6 $7 $8 $9 X,Y pos of 4 corners*
0 Add a 4 corners polygon primitive as box body*
4,1,4,$2,$3,$4,$5,$6,$7,$8,$9,$2,$3,0*
0 Add four circle primitives for the rounded corners*
1,1,$1+$1,$2,$3*
1,1,$1+$1,$4,$5*
1,1,$1+$1,$6,$7*
1,1,$1+$1,$8,$9*
0 Add four rect primitives between the rounded corners*
20,1,$1+$1,$2,$3,$4,$5,0*
20,1,$1+$1,$4,$5,$6,$7,0*
20,1,$1+$1,$6,$7,$8,$9,0*
20,1,$1+$1,$8,$9,$2,$3,0*%
G04 Aperture macros list end*
%ADD10RoundRect,0.225000X-0.225000X-0.250000X0.225000X-0.250000X0.225000X0.250000X-0.225000X0.250000X0*%
%ADD11RoundRect,0.200000X-0.200000X-0.275000X0.200000X-0.275000X0.200000X0.275000X-0.200000X0.275000X0*%
%ADD12RoundRect,0.200000X0.200000X0.275000X-0.200000X0.275000X-0.200000X-0.275000X0.200000X-0.275000X0*%
%ADD13RoundRect,0.250000X-0.550000X1.500000X-0.550000X-1.500000X0.550000X-1.500000X0.550000X1.500000X0*%
%ADD14RoundRect,0.250000X0.250000X0.475000X-0.250000X0.475000X-0.250000X-0.475000X0.250000X-0.475000X0*%
%ADD15RoundRect,0.135000X-0.135000X0.200000X-0.135000X-0.200000X0.135000X-0.200000X0.135000X0.200000X0*%
%ADD16RoundRect,0.062500X-0.062500X0.350000X-0.062500X-0.350000X0.062500X-0.350000X0.062500X0.350000X0*%
%ADD17RoundRect,0.200000X0.275000X-0.200000X0.275000X0.200000X-0.275000X0.200000X-0.275000X-0.200000X0*%
%ADD18RoundRect,0.150000X-0.512500X-0.150000X0.512500X-0.150000X0.512500X0.150000X-0.512500X0.150000X0*%
%ADD19RoundRect,0.250000X-0.475000X0.250000X-0.475000X-0.250000X0.475000X-0.250000X0.475000X0.250000X0*%
%ADD20RoundRect,0.225000X-0.250000X0.225000X-0.250000X-0.225000X0.250000X-0.225000X0.250000X0.225000X0*%
%ADD21RoundRect,0.375000X0.375000X-0.375000X0.375000X0.375000X-0.375000X0.375000X-0.375000X-0.375000X0*%
%ADD22RoundRect,0.125000X0.125000X-0.250000X0.125000X0.250000X-0.125000X0.250000X-0.125000X-0.250000X0*%
%ADD23RoundRect,0.100000X0.100000X-0.275000X0.100000X0.275000X-0.100000X0.275000X-0.100000X-0.275000X0*%
%ADD24RoundRect,0.250000X1.950000X1.000000X-1.950000X1.000000X-1.950000X-1.000000X1.950000X-1.000000X0*%
%ADD25RoundRect,0.250000X-1.425000X0.362500X-1.425000X-0.362500X1.425000X-0.362500X1.425000X0.362500X0*%
%ADD26RoundRect,0.150000X0.575000X-0.150000X0.575000X0.150000X-0.575000X0.150000X-0.575000X-0.150000X0*%
%ADD27RoundRect,0.075000X0.650000X-0.075000X0.650000X0.075000X-0.650000X0.075000X-0.650000X-0.075000X0*%
%ADD28RoundRect,0.200000X-0.275000X0.200000X-0.275000X-0.200000X0.275000X-0.200000X0.275000X0.200000X0*%
%ADD29RoundRect,0.250000X1.600000X-0.300000X1.600000X0.300000X-1.600000X0.300000X-1.600000X-0.300000X0*%
%ADD30RoundRect,0.135000X0.185000X-0.135000X0.185000X0.135000X-0.185000X0.135000X-0.185000X-0.135000X0*%
%ADD31RoundRect,0.250000X-1.400000X-1.000000X1.400000X-1.000000X1.400000X1.000000X-1.400000X1.000000X0*%
%ADD32RoundRect,0.243750X0.456250X-0.243750X0.456250X0.243750X-0.456250X0.243750X-0.456250X-0.243750X0*%
%ADD33RoundRect,0.225000X0.225000X0.250000X-0.225000X0.250000X-0.225000X-0.250000X0.225000X-0.250000X0*%
%ADD34RoundRect,0.250000X0.375000X1.075000X-0.375000X1.075000X-0.375000X-1.075000X0.375000X-1.075000X0*%
%ADD35RoundRect,0.150000X0.512500X0.150000X-0.512500X0.150000X-0.512500X-0.150000X0.512500X-0.150000X0*%
%ADD36RoundRect,0.250000X0.450000X0.350000X-0.450000X0.350000X-0.450000X-0.350000X0.450000X-0.350000X0*%
%ADD37RoundRect,0.250000X-1.950000X-1.000000X1.950000X-1.000000X1.950000X1.000000X-1.950000X1.000000X0*%
%ADD38RoundRect,0.075000X-0.662500X-0.075000X0.662500X-0.075000X0.662500X0.075000X-0.662500X0.075000X0*%
%ADD39RoundRect,0.075000X-0.075000X-0.662500X0.075000X-0.662500X0.075000X0.662500X-0.075000X0.662500X0*%
%ADD40RoundRect,0.225000X0.250000X-0.225000X0.250000X0.225000X-0.250000X0.225000X-0.250000X-0.225000X0*%
%ADD41RoundRect,0.237500X-0.237500X-0.292500X0.237500X-0.292500X0.237500X0.292500X-0.237500X0.292500X0*%
%ADD42RoundRect,0.062500X-0.375000X-0.062500X0.375000X-0.062500X0.375000X0.062500X-0.375000X0.062500X0*%
%ADD43RoundRect,0.062500X-0.062500X-0.375000X0.062500X-0.375000X0.062500X0.375000X-0.062500X0.375000X0*%
%ADD44RoundRect,0.250000X-0.250000X-0.475000X0.250000X-0.475000X0.250000X0.475000X-0.250000X0.475000X0*%
%ADD45RoundRect,0.242500X0.242500X0.382500X-0.242500X0.382500X-0.242500X-0.382500X0.242500X-0.382500X0*%
%ADD46RoundRect,0.150000X0.650000X0.150000X-0.650000X0.150000X-0.650000X-0.150000X0.650000X-0.150000X0*%
%ADD47RoundRect,0.250000X0.475000X-0.250000X0.475000X0.250000X-0.475000X0.250000X-0.475000X-0.250000X0*%
%ADD48RoundRect,0.250000X-0.420000X-0.945000X0.420000X-0.945000X0.420000X0.945000X-0.420000X0.945000X0*%
G04 APERTURE END LIST*
D10*
G04 #@! TO.C,C27*
X125975000Y-130000000D03*
X127525000Y-130000000D03*
G04 #@! TD*
G04 #@! TO.C,C9*
X140925000Y-84250000D03*
X142475000Y-84250000D03*
G04 #@! TD*
D11*
G04 #@! TO.C,R12*
X111325000Y-132700000D03*
X112975000Y-132700000D03*
G04 #@! TD*
D12*
G04 #@! TO.C,R32*
X116675000Y-137500000D03*
X115025000Y-137500000D03*
G04 #@! TD*
D13*
G04 #@! TO.C,C16*
X125305000Y-73625000D03*
X125305000Y-79025000D03*
G04 #@! TD*
D14*
G04 #@! TO.C,C5*
X140050000Y-106350000D03*
X138150000Y-106350000D03*
G04 #@! TD*
D15*
G04 #@! TO.C,U8*
X122665000Y-104527500D03*
X121985000Y-104527500D03*
X122665000Y-105347500D03*
X121985000Y-105347500D03*
D16*
X122825000Y-103500000D03*
X122325000Y-103500000D03*
X121825000Y-103500000D03*
X121825000Y-106375000D03*
X122325000Y-106375000D03*
X122825000Y-106375000D03*
G04 #@! TD*
D17*
G04 #@! TO.C,R34*
X124550000Y-106425000D03*
X124550000Y-104775000D03*
G04 #@! TD*
D11*
G04 #@! TO.C,R8*
X140825000Y-95050000D03*
X142475000Y-95050000D03*
G04 #@! TD*
D18*
G04 #@! TO.C,U7*
X116375000Y-114400000D03*
X116375000Y-115350000D03*
X116375000Y-116300000D03*
X118650000Y-116300000D03*
X118650000Y-114400000D03*
G04 #@! TD*
D19*
G04 #@! TO.C,C15*
X114250000Y-114400000D03*
X114250000Y-116300000D03*
G04 #@! TD*
D12*
G04 #@! TO.C,R22*
X119775000Y-128600000D03*
X118125000Y-128600000D03*
G04 #@! TD*
D20*
G04 #@! TO.C,C21*
X133150000Y-127200000D03*
X133150000Y-128750000D03*
G04 #@! TD*
D21*
G04 #@! TO.C,Q4*
X114880000Y-69375000D03*
X116580000Y-69375000D03*
X114880000Y-67675000D03*
X116580000Y-67675000D03*
D22*
X113825000Y-66270000D03*
X115095000Y-66270000D03*
X116365000Y-66270000D03*
X117635000Y-66270000D03*
D23*
X113825000Y-72075000D03*
X115095000Y-72075000D03*
X116365000Y-72075000D03*
X117635000Y-72075000D03*
G04 #@! TD*
D20*
G04 #@! TO.C,C10*
X127475000Y-109150000D03*
X127475000Y-110700000D03*
G04 #@! TD*
D21*
G04 #@! TO.C,Q3*
X120580000Y-69375000D03*
X122280000Y-69375000D03*
X120580000Y-67675000D03*
X122280000Y-67675000D03*
D22*
X119525000Y-66270000D03*
X120795000Y-66270000D03*
X122065000Y-66270000D03*
X123335000Y-66270000D03*
D23*
X119525000Y-72075000D03*
X120795000Y-72075000D03*
X122065000Y-72075000D03*
X123335000Y-72075000D03*
G04 #@! TD*
D12*
G04 #@! TO.C,R15*
X137575000Y-129600000D03*
X135925000Y-129600000D03*
G04 #@! TD*
D21*
G04 #@! TO.C,Q2*
X128330000Y-69375000D03*
X130030000Y-69375000D03*
X128330000Y-67675000D03*
X130030000Y-67675000D03*
D22*
X127275000Y-66270000D03*
X128545000Y-66270000D03*
X129815000Y-66270000D03*
X131085000Y-66270000D03*
D23*
X127275000Y-72075000D03*
X128545000Y-72075000D03*
X129815000Y-72075000D03*
X131085000Y-72075000D03*
G04 #@! TD*
D24*
G04 #@! TO.C,C19*
X115475000Y-89575000D03*
X108075000Y-89575000D03*
G04 #@! TD*
D12*
G04 #@! TO.C,R7*
X142475000Y-96625000D03*
X140825000Y-96625000D03*
G04 #@! TD*
D25*
G04 #@! TO.C,R1*
X102750000Y-77012500D03*
X102750000Y-82937500D03*
G04 #@! TD*
D26*
G04 #@! TO.C,J5*
X143465000Y-130750000D03*
X143465000Y-129950000D03*
D27*
X143465000Y-128750000D03*
X143465000Y-127750000D03*
X143465000Y-127250000D03*
X143465000Y-126250000D03*
D26*
X143465000Y-125050000D03*
X143465000Y-124250000D03*
X143465000Y-124250000D03*
X143465000Y-125050000D03*
D27*
X143465000Y-125750000D03*
X143465000Y-126750000D03*
X143465000Y-128250000D03*
X143465000Y-129250000D03*
D26*
X143465000Y-129950000D03*
X143465000Y-130750000D03*
G04 #@! TD*
D12*
G04 #@! TO.C,R23*
X136825000Y-122950000D03*
X135175000Y-122950000D03*
G04 #@! TD*
D28*
G04 #@! TO.C,R37*
X127950000Y-113550000D03*
X127950000Y-115200000D03*
G04 #@! TD*
D24*
G04 #@! TO.C,C1*
X146625000Y-113700000D03*
X139225000Y-113700000D03*
G04 #@! TD*
D29*
G04 #@! TO.C,L1*
X108050000Y-132900000D03*
X108050000Y-129900000D03*
G04 #@! TD*
D12*
G04 #@! TO.C,R9*
X142525000Y-85850000D03*
X140875000Y-85850000D03*
G04 #@! TD*
D10*
G04 #@! TO.C,C22*
X135225000Y-118400000D03*
X136775000Y-118400000D03*
G04 #@! TD*
D30*
G04 #@! TO.C,R59*
X119600000Y-135450000D03*
X119600000Y-134430000D03*
G04 #@! TD*
D13*
G04 #@! TO.C,C18*
X138775000Y-73625000D03*
X138775000Y-79025000D03*
G04 #@! TD*
D21*
G04 #@! TO.C,Q1*
X134030000Y-69375000D03*
X135730000Y-69375000D03*
X134030000Y-67675000D03*
X135730000Y-67675000D03*
D22*
X132975000Y-66270000D03*
X134245000Y-66270000D03*
X135515000Y-66270000D03*
X136785000Y-66270000D03*
D23*
X132975000Y-72075000D03*
X134245000Y-72075000D03*
X135515000Y-72075000D03*
X136785000Y-72075000D03*
G04 #@! TD*
D12*
G04 #@! TO.C,R21*
X144500000Y-120875000D03*
X142850000Y-120875000D03*
G04 #@! TD*
D31*
G04 #@! TO.C,D2*
X111550000Y-120100000D03*
X111550000Y-126900000D03*
G04 #@! TD*
D32*
G04 #@! TO.C,D13*
X121750000Y-138637500D03*
X121750000Y-136762500D03*
G04 #@! TD*
D33*
G04 #@! TO.C,C11*
X108125000Y-134500000D03*
X106575000Y-134500000D03*
G04 #@! TD*
D34*
G04 #@! TO.C,FB1*
X124050000Y-109375000D03*
X121250000Y-109375000D03*
G04 #@! TD*
D12*
G04 #@! TO.C,R10*
X142525000Y-82625000D03*
X140875000Y-82625000D03*
G04 #@! TD*
G04 #@! TO.C,R29*
X136825000Y-119950000D03*
X135175000Y-119950000D03*
G04 #@! TD*
D35*
G04 #@! TO.C,U11*
X140387500Y-127950000D03*
X140387500Y-127000000D03*
X140387500Y-126050000D03*
X138112500Y-126050000D03*
X138112500Y-127000000D03*
X138112500Y-127950000D03*
G04 #@! TD*
D12*
G04 #@! TO.C,R27*
X119775000Y-127000000D03*
X118125000Y-127000000D03*
G04 #@! TD*
D30*
G04 #@! TO.C,R60*
X121750000Y-135525000D03*
X121750000Y-134505000D03*
G04 #@! TD*
D33*
G04 #@! TO.C,C29*
X119375000Y-119100000D03*
X117825000Y-119100000D03*
G04 #@! TD*
D10*
G04 #@! TO.C,C8*
X140875000Y-98225000D03*
X142425000Y-98225000D03*
G04 #@! TD*
D33*
G04 #@! TO.C,C25*
X130850000Y-130000000D03*
X129300000Y-130000000D03*
G04 #@! TD*
D21*
G04 #@! TO.C,Q7*
X121840000Y-98925000D03*
X123540000Y-98925000D03*
X121840000Y-97225000D03*
X123540000Y-97225000D03*
D22*
X120785000Y-95820000D03*
X122055000Y-95820000D03*
X123325000Y-95820000D03*
X124595000Y-95820000D03*
D23*
X120785000Y-101625000D03*
X122055000Y-101625000D03*
X123325000Y-101625000D03*
X124595000Y-101625000D03*
G04 #@! TD*
D11*
G04 #@! TO.C,R6*
X140850000Y-88075000D03*
X142500000Y-88075000D03*
G04 #@! TD*
D36*
G04 #@! TO.C,Y1*
X119550000Y-120850000D03*
X117350000Y-120850000D03*
X117350000Y-122550000D03*
X119550000Y-122550000D03*
G04 #@! TD*
D33*
G04 #@! TO.C,C6*
X139650000Y-104600000D03*
X138100000Y-104600000D03*
G04 #@! TD*
D12*
G04 #@! TO.C,R17*
X119775000Y-131800000D03*
X118125000Y-131800000D03*
G04 #@! TD*
D37*
G04 #@! TO.C,C20*
X120425000Y-89575000D03*
X127825000Y-89575000D03*
G04 #@! TD*
D12*
G04 #@! TO.C,R28*
X136825000Y-121450000D03*
X135175000Y-121450000D03*
G04 #@! TD*
D11*
G04 #@! TO.C,R11*
X140875000Y-81025000D03*
X142525000Y-81025000D03*
G04 #@! TD*
D31*
G04 #@! TO.C,D3*
X104550000Y-120100000D03*
X104550000Y-126900000D03*
G04 #@! TD*
D17*
G04 #@! TO.C,R33*
X120150000Y-106325000D03*
X120150000Y-104675000D03*
G04 #@! TD*
D38*
G04 #@! TO.C,U1*
X123595000Y-119430000D03*
X123595000Y-119930000D03*
X123595000Y-120430000D03*
X123595000Y-120930000D03*
X123595000Y-121430000D03*
X123595000Y-121930000D03*
X123595000Y-122430000D03*
X123595000Y-122930000D03*
X123595000Y-123430000D03*
X123595000Y-123930000D03*
X123595000Y-124430000D03*
X123595000Y-124930000D03*
D39*
X125007500Y-126342500D03*
X125507500Y-126342500D03*
X126007500Y-126342500D03*
X126507500Y-126342500D03*
X127007500Y-126342500D03*
X127507500Y-126342500D03*
X128007500Y-126342500D03*
X128507500Y-126342500D03*
X129007500Y-126342500D03*
X129507500Y-126342500D03*
X130007500Y-126342500D03*
X130507500Y-126342500D03*
D38*
X131920000Y-124930000D03*
X131920000Y-124430000D03*
X131920000Y-123930000D03*
X131920000Y-123430000D03*
X131920000Y-122930000D03*
X131920000Y-122430000D03*
X131920000Y-121930000D03*
X131920000Y-121430000D03*
X131920000Y-120930000D03*
X131920000Y-120430000D03*
X131920000Y-119930000D03*
X131920000Y-119430000D03*
D39*
X130507500Y-118017500D03*
X130007500Y-118017500D03*
X129507500Y-118017500D03*
X129007500Y-118017500D03*
X128507500Y-118017500D03*
X128007500Y-118017500D03*
X127507500Y-118017500D03*
X127007500Y-118017500D03*
X126507500Y-118017500D03*
X126007500Y-118017500D03*
X125507500Y-118017500D03*
X125007500Y-118017500D03*
G04 #@! TD*
D40*
G04 #@! TO.C,C23*
X123375000Y-115125000D03*
X123375000Y-113575000D03*
G04 #@! TD*
D17*
G04 #@! TO.C,R25*
X124950000Y-115200000D03*
X124950000Y-113550000D03*
G04 #@! TD*
D12*
G04 #@! TO.C,R5*
X142500000Y-89650000D03*
X140850000Y-89650000D03*
G04 #@! TD*
D17*
G04 #@! TO.C,R14*
X114550000Y-134325000D03*
X114550000Y-132675000D03*
G04 #@! TD*
D31*
G04 #@! TO.C,D1*
X115775000Y-102400000D03*
X115775000Y-109200000D03*
G04 #@! TD*
D13*
G04 #@! TO.C,C17*
X111830000Y-73625000D03*
X111830000Y-79025000D03*
G04 #@! TD*
D12*
G04 #@! TO.C,R19*
X119800000Y-130200000D03*
X118150000Y-130200000D03*
G04 #@! TD*
D32*
G04 #@! TO.C,D12*
X119550000Y-138637500D03*
X119550000Y-136762500D03*
G04 #@! TD*
D33*
G04 #@! TO.C,C4*
X139650000Y-108075000D03*
X138100000Y-108075000D03*
G04 #@! TD*
D14*
G04 #@! TO.C,C24*
X131160000Y-131820000D03*
X129260000Y-131820000D03*
G04 #@! TD*
D10*
G04 #@! TO.C,C28*
X117825000Y-124300000D03*
X119375000Y-124300000D03*
G04 #@! TD*
D41*
G04 #@! TO.C,U2*
X130730000Y-104690000D03*
X130730000Y-106000000D03*
X131900000Y-104690000D03*
X131900000Y-106000000D03*
X133070000Y-104690000D03*
X133070000Y-106000000D03*
D42*
X128962500Y-103095000D03*
X128962500Y-103595000D03*
X128962500Y-104095000D03*
X128962500Y-104595000D03*
X128962500Y-105095000D03*
X128962500Y-105595000D03*
X128962500Y-106095000D03*
X128962500Y-106595000D03*
X128962500Y-107095000D03*
X128962500Y-107595000D03*
D43*
X129650000Y-108282500D03*
X130150000Y-108282500D03*
X130650000Y-108282500D03*
X131150000Y-108282500D03*
X131650000Y-108282500D03*
X132150000Y-108282500D03*
X132650000Y-108282500D03*
X133150000Y-108282500D03*
X133650000Y-108282500D03*
X134150000Y-108282500D03*
D42*
X134837500Y-107595000D03*
X134837500Y-107095000D03*
X134837500Y-106595000D03*
X134837500Y-106095000D03*
X134837500Y-105595000D03*
X134837500Y-105095000D03*
X134837500Y-104595000D03*
X134837500Y-104095000D03*
X134837500Y-103595000D03*
X134837500Y-103095000D03*
D43*
X134150000Y-102407500D03*
X133650000Y-102407500D03*
X133150000Y-102407500D03*
X132650000Y-102407500D03*
X132150000Y-102407500D03*
X131650000Y-102407500D03*
X131150000Y-102407500D03*
X130650000Y-102407500D03*
X130150000Y-102407500D03*
X129650000Y-102407500D03*
G04 #@! TD*
D11*
G04 #@! TO.C,R20*
X142850000Y-119375000D03*
X144500000Y-119375000D03*
G04 #@! TD*
D44*
G04 #@! TO.C,C12*
X115000000Y-139300000D03*
X116900000Y-139300000D03*
G04 #@! TD*
G04 #@! TO.C,C26*
X125650000Y-131800000D03*
X127550000Y-131800000D03*
G04 #@! TD*
D10*
G04 #@! TO.C,C7*
X140875000Y-91250000D03*
X142425000Y-91250000D03*
G04 #@! TD*
D21*
G04 #@! TO.C,Q6*
X101380000Y-69375000D03*
X103080000Y-69375000D03*
X101380000Y-67675000D03*
X103080000Y-67675000D03*
D22*
X100325000Y-66270000D03*
X101595000Y-66270000D03*
X102865000Y-66270000D03*
X104135000Y-66270000D03*
D23*
X100325000Y-72075000D03*
X101595000Y-72075000D03*
X102865000Y-72075000D03*
X104135000Y-72075000D03*
G04 #@! TD*
D11*
G04 #@! TO.C,R13*
X111325000Y-134300000D03*
X112975000Y-134300000D03*
G04 #@! TD*
D17*
G04 #@! TO.C,R30*
X140750000Y-123900000D03*
X140750000Y-122250000D03*
G04 #@! TD*
D45*
G04 #@! TO.C,U6*
X110895000Y-138875000D03*
X110895000Y-137325000D03*
X109695000Y-138875000D03*
X109695000Y-137325000D03*
D46*
X112945000Y-140005000D03*
X112945000Y-138735000D03*
X112945000Y-137465000D03*
X112945000Y-136195000D03*
X107645000Y-136195000D03*
X107645000Y-137465000D03*
X107645000Y-138735000D03*
X107645000Y-140005000D03*
G04 #@! TD*
D12*
G04 #@! TO.C,R4*
X142500000Y-99825000D03*
X140850000Y-99825000D03*
G04 #@! TD*
D28*
G04 #@! TO.C,R26*
X126450000Y-113550000D03*
X126450000Y-115200000D03*
G04 #@! TD*
D17*
G04 #@! TO.C,R24*
X132450000Y-115300000D03*
X132450000Y-113650000D03*
G04 #@! TD*
D12*
G04 #@! TO.C,R2*
X142475000Y-92825000D03*
X140825000Y-92825000D03*
G04 #@! TD*
D17*
G04 #@! TO.C,R18*
X123960000Y-131540000D03*
X123960000Y-129890000D03*
G04 #@! TD*
D12*
G04 #@! TO.C,R31*
X116675000Y-136000000D03*
X115025000Y-136000000D03*
G04 #@! TD*
D40*
G04 #@! TO.C,C2*
X135500000Y-100850000D03*
X135500000Y-99300000D03*
G04 #@! TD*
D21*
G04 #@! TO.C,Q5*
X107080000Y-69375000D03*
X108780000Y-69375000D03*
X107080000Y-67675000D03*
X108780000Y-67675000D03*
D22*
X106025000Y-66270000D03*
X107295000Y-66270000D03*
X108565000Y-66270000D03*
X109835000Y-66270000D03*
D23*
X106025000Y-72075000D03*
X107295000Y-72075000D03*
X108565000Y-72075000D03*
X109835000Y-72075000D03*
G04 #@! TD*
D47*
G04 #@! TO.C,C14*
X120750000Y-116250000D03*
X120750000Y-114350000D03*
G04 #@! TD*
D14*
G04 #@! TO.C,C3*
X140050000Y-102850000D03*
X138150000Y-102850000D03*
G04 #@! TD*
D48*
G04 #@! TO.C,C13*
X111610000Y-130200000D03*
X114690000Y-130200000D03*
G04 #@! TD*
D17*
G04 #@! TO.C,R16*
X122370000Y-131550000D03*
X122370000Y-129900000D03*
G04 #@! TD*
M02*
