%TF.GenerationSoftware,KiCad,Pcbnew,10.0.1*%
%TF.CreationDate,2026-07-19T18:32:22+01:00*%
%TF.ProjectId,bldc&foc motor controller,626c6463-2666-46f6-9320-6d6f746f7220,rev?*%
%TF.SameCoordinates,Original*%
%TF.FileFunction,Drillmap*%
%TF.FilePolarity,Positive*%
%FSLAX45Y45*%
G04 Gerber Fmt 4.5, Leading zero omitted, Abs format (unit mm)*
G04 Created by KiCad (PCBNEW 10.0.1) date 2026-07-19 18:32:22*
%MOMM*%
%LPD*%
G01*
G04 APERTURE LIST*
%ADD10C,0.050000*%
%ADD11C,0.200000*%
%ADD12C,0.100000*%
G04 APERTURE END LIST*
D10*
X9472500Y-6442500D02*
X9472500Y-6442500D01*
G75*
G02*
X9972500Y-5942500I500000J0D01*
G01*
X14577500Y-5942500D01*
G75*
G02*
X15077500Y-6442500I0J-500000D01*
G01*
X15077500Y-14237500D01*
G75*
G02*
X14577500Y-14737500I-500000J0D01*
G01*
X9972500Y-14737500D01*
G75*
G02*
X9472500Y-14237500I0J500000D01*
G01*
X9472500Y-6442500D01*
D11*
D12*
X14458500Y-12428500D02*
X14523500Y-12493500D01*
X14523500Y-12428500D02*
X14458500Y-12493500D01*
X14458500Y-13006500D02*
X14523500Y-13071500D01*
X14523500Y-13006500D02*
X14458500Y-13071500D01*
X12539430Y-13556000D02*
G75*
G02*
X12440370Y-13556000I-49530J0D01*
G01*
X12440370Y-13556000D02*
G75*
G02*
X12539430Y-13556000I49530J0D01*
G01*
X12641030Y-14064000D02*
G75*
G02*
X12541970Y-14064000I-49530J0D01*
G01*
X12541970Y-14064000D02*
G75*
G02*
X12641030Y-14064000I49530J0D01*
G01*
X12742630Y-13556000D02*
G75*
G02*
X12643570Y-13556000I-49530J0D01*
G01*
X12643570Y-13556000D02*
G75*
G02*
X12742630Y-13556000I49530J0D01*
G01*
D11*
X9730777Y-15051484D02*
X9730777Y-14851484D01*
X9730777Y-14851484D02*
X9778396Y-14851484D01*
X9778396Y-14851484D02*
X9806967Y-14861008D01*
X9806967Y-14861008D02*
X9826015Y-14880055D01*
X9826015Y-14880055D02*
X9835539Y-14899103D01*
X9835539Y-14899103D02*
X9845063Y-14937198D01*
X9845063Y-14937198D02*
X9845063Y-14965769D01*
X9845063Y-14965769D02*
X9835539Y-15003865D01*
X9835539Y-15003865D02*
X9826015Y-15022912D01*
X9826015Y-15022912D02*
X9806967Y-15041960D01*
X9806967Y-15041960D02*
X9778396Y-15051484D01*
X9778396Y-15051484D02*
X9730777Y-15051484D01*
X9930777Y-15051484D02*
X9930777Y-14918150D01*
X9930777Y-14956246D02*
X9940301Y-14937198D01*
X9940301Y-14937198D02*
X9949824Y-14927674D01*
X9949824Y-14927674D02*
X9968872Y-14918150D01*
X9968872Y-14918150D02*
X9987920Y-14918150D01*
X10054586Y-15051484D02*
X10054586Y-14918150D01*
X10054586Y-14851484D02*
X10045063Y-14861008D01*
X10045063Y-14861008D02*
X10054586Y-14870531D01*
X10054586Y-14870531D02*
X10064110Y-14861008D01*
X10064110Y-14861008D02*
X10054586Y-14851484D01*
X10054586Y-14851484D02*
X10054586Y-14870531D01*
X10178396Y-15051484D02*
X10159348Y-15041960D01*
X10159348Y-15041960D02*
X10149824Y-15022912D01*
X10149824Y-15022912D02*
X10149824Y-14851484D01*
X10283158Y-15051484D02*
X10264110Y-15041960D01*
X10264110Y-15041960D02*
X10254586Y-15022912D01*
X10254586Y-15022912D02*
X10254586Y-14851484D01*
X10511729Y-15051484D02*
X10511729Y-14851484D01*
X10511729Y-14851484D02*
X10578396Y-14994341D01*
X10578396Y-14994341D02*
X10645063Y-14851484D01*
X10645063Y-14851484D02*
X10645063Y-15051484D01*
X10826015Y-15051484D02*
X10826015Y-14946722D01*
X10826015Y-14946722D02*
X10816491Y-14927674D01*
X10816491Y-14927674D02*
X10797444Y-14918150D01*
X10797444Y-14918150D02*
X10759348Y-14918150D01*
X10759348Y-14918150D02*
X10740301Y-14927674D01*
X10826015Y-15041960D02*
X10806967Y-15051484D01*
X10806967Y-15051484D02*
X10759348Y-15051484D01*
X10759348Y-15051484D02*
X10740301Y-15041960D01*
X10740301Y-15041960D02*
X10730777Y-15022912D01*
X10730777Y-15022912D02*
X10730777Y-15003865D01*
X10730777Y-15003865D02*
X10740301Y-14984817D01*
X10740301Y-14984817D02*
X10759348Y-14975293D01*
X10759348Y-14975293D02*
X10806967Y-14975293D01*
X10806967Y-14975293D02*
X10826015Y-14965769D01*
X10921253Y-14918150D02*
X10921253Y-15118150D01*
X10921253Y-14927674D02*
X10940301Y-14918150D01*
X10940301Y-14918150D02*
X10978396Y-14918150D01*
X10978396Y-14918150D02*
X10997444Y-14927674D01*
X10997444Y-14927674D02*
X11006967Y-14937198D01*
X11006967Y-14937198D02*
X11016491Y-14956246D01*
X11016491Y-14956246D02*
X11016491Y-15013388D01*
X11016491Y-15013388D02*
X11006967Y-15032436D01*
X11006967Y-15032436D02*
X10997444Y-15041960D01*
X10997444Y-15041960D02*
X10978396Y-15051484D01*
X10978396Y-15051484D02*
X10940301Y-15051484D01*
X10940301Y-15051484D02*
X10921253Y-15041960D01*
X11102205Y-15032436D02*
X11111729Y-15041960D01*
X11111729Y-15041960D02*
X11102205Y-15051484D01*
X11102205Y-15051484D02*
X11092682Y-15041960D01*
X11092682Y-15041960D02*
X11102205Y-15032436D01*
X11102205Y-15032436D02*
X11102205Y-15051484D01*
X11102205Y-14927674D02*
X11111729Y-14937198D01*
X11111729Y-14937198D02*
X11102205Y-14946722D01*
X11102205Y-14946722D02*
X11092682Y-14937198D01*
X11092682Y-14937198D02*
X11102205Y-14927674D01*
X11102205Y-14927674D02*
X11102205Y-14946722D01*
D12*
X9405000Y-15347500D02*
X9470000Y-15412500D01*
X9470000Y-15347500D02*
X9405000Y-15412500D01*
D11*
X9768872Y-15271484D02*
X9787920Y-15271484D01*
X9787920Y-15271484D02*
X9806967Y-15281008D01*
X9806967Y-15281008D02*
X9816491Y-15290531D01*
X9816491Y-15290531D02*
X9826015Y-15309579D01*
X9826015Y-15309579D02*
X9835539Y-15347674D01*
X9835539Y-15347674D02*
X9835539Y-15395293D01*
X9835539Y-15395293D02*
X9826015Y-15433388D01*
X9826015Y-15433388D02*
X9816491Y-15452436D01*
X9816491Y-15452436D02*
X9806967Y-15461960D01*
X9806967Y-15461960D02*
X9787920Y-15471484D01*
X9787920Y-15471484D02*
X9768872Y-15471484D01*
X9768872Y-15471484D02*
X9749824Y-15461960D01*
X9749824Y-15461960D02*
X9740301Y-15452436D01*
X9740301Y-15452436D02*
X9730777Y-15433388D01*
X9730777Y-15433388D02*
X9721253Y-15395293D01*
X9721253Y-15395293D02*
X9721253Y-15347674D01*
X9721253Y-15347674D02*
X9730777Y-15309579D01*
X9730777Y-15309579D02*
X9740301Y-15290531D01*
X9740301Y-15290531D02*
X9749824Y-15281008D01*
X9749824Y-15281008D02*
X9768872Y-15271484D01*
X9921253Y-15452436D02*
X9930777Y-15461960D01*
X9930777Y-15461960D02*
X9921253Y-15471484D01*
X9921253Y-15471484D02*
X9911729Y-15461960D01*
X9911729Y-15461960D02*
X9921253Y-15452436D01*
X9921253Y-15452436D02*
X9921253Y-15471484D01*
X10102205Y-15271484D02*
X10064110Y-15271484D01*
X10064110Y-15271484D02*
X10045063Y-15281008D01*
X10045063Y-15281008D02*
X10035539Y-15290531D01*
X10035539Y-15290531D02*
X10016491Y-15319103D01*
X10016491Y-15319103D02*
X10006967Y-15357198D01*
X10006967Y-15357198D02*
X10006967Y-15433388D01*
X10006967Y-15433388D02*
X10016491Y-15452436D01*
X10016491Y-15452436D02*
X10026015Y-15461960D01*
X10026015Y-15461960D02*
X10045063Y-15471484D01*
X10045063Y-15471484D02*
X10083158Y-15471484D01*
X10083158Y-15471484D02*
X10102205Y-15461960D01*
X10102205Y-15461960D02*
X10111729Y-15452436D01*
X10111729Y-15452436D02*
X10121253Y-15433388D01*
X10121253Y-15433388D02*
X10121253Y-15385769D01*
X10121253Y-15385769D02*
X10111729Y-15366722D01*
X10111729Y-15366722D02*
X10102205Y-15357198D01*
X10102205Y-15357198D02*
X10083158Y-15347674D01*
X10083158Y-15347674D02*
X10045063Y-15347674D01*
X10045063Y-15347674D02*
X10026015Y-15357198D01*
X10026015Y-15357198D02*
X10016491Y-15366722D01*
X10016491Y-15366722D02*
X10006967Y-15385769D01*
X10302205Y-15271484D02*
X10206967Y-15271484D01*
X10206967Y-15271484D02*
X10197444Y-15366722D01*
X10197444Y-15366722D02*
X10206967Y-15357198D01*
X10206967Y-15357198D02*
X10226015Y-15347674D01*
X10226015Y-15347674D02*
X10273634Y-15347674D01*
X10273634Y-15347674D02*
X10292682Y-15357198D01*
X10292682Y-15357198D02*
X10302205Y-15366722D01*
X10302205Y-15366722D02*
X10311729Y-15385769D01*
X10311729Y-15385769D02*
X10311729Y-15433388D01*
X10311729Y-15433388D02*
X10302205Y-15452436D01*
X10302205Y-15452436D02*
X10292682Y-15461960D01*
X10292682Y-15461960D02*
X10273634Y-15471484D01*
X10273634Y-15471484D02*
X10226015Y-15471484D01*
X10226015Y-15471484D02*
X10206967Y-15461960D01*
X10206967Y-15461960D02*
X10197444Y-15452436D01*
X10435539Y-15271484D02*
X10454586Y-15271484D01*
X10454586Y-15271484D02*
X10473634Y-15281008D01*
X10473634Y-15281008D02*
X10483158Y-15290531D01*
X10483158Y-15290531D02*
X10492682Y-15309579D01*
X10492682Y-15309579D02*
X10502205Y-15347674D01*
X10502205Y-15347674D02*
X10502205Y-15395293D01*
X10502205Y-15395293D02*
X10492682Y-15433388D01*
X10492682Y-15433388D02*
X10483158Y-15452436D01*
X10483158Y-15452436D02*
X10473634Y-15461960D01*
X10473634Y-15461960D02*
X10454586Y-15471484D01*
X10454586Y-15471484D02*
X10435539Y-15471484D01*
X10435539Y-15471484D02*
X10416491Y-15461960D01*
X10416491Y-15461960D02*
X10406967Y-15452436D01*
X10406967Y-15452436D02*
X10397444Y-15433388D01*
X10397444Y-15433388D02*
X10387920Y-15395293D01*
X10387920Y-15395293D02*
X10387920Y-15347674D01*
X10387920Y-15347674D02*
X10397444Y-15309579D01*
X10397444Y-15309579D02*
X10406967Y-15290531D01*
X10406967Y-15290531D02*
X10416491Y-15281008D01*
X10416491Y-15281008D02*
X10435539Y-15271484D01*
X10587920Y-15471484D02*
X10587920Y-15338150D01*
X10587920Y-15357198D02*
X10597444Y-15347674D01*
X10597444Y-15347674D02*
X10616491Y-15338150D01*
X10616491Y-15338150D02*
X10645063Y-15338150D01*
X10645063Y-15338150D02*
X10664110Y-15347674D01*
X10664110Y-15347674D02*
X10673634Y-15366722D01*
X10673634Y-15366722D02*
X10673634Y-15471484D01*
X10673634Y-15366722D02*
X10683158Y-15347674D01*
X10683158Y-15347674D02*
X10702205Y-15338150D01*
X10702205Y-15338150D02*
X10730777Y-15338150D01*
X10730777Y-15338150D02*
X10749825Y-15347674D01*
X10749825Y-15347674D02*
X10759348Y-15366722D01*
X10759348Y-15366722D02*
X10759348Y-15471484D01*
X10854586Y-15471484D02*
X10854586Y-15338150D01*
X10854586Y-15357198D02*
X10864110Y-15347674D01*
X10864110Y-15347674D02*
X10883158Y-15338150D01*
X10883158Y-15338150D02*
X10911729Y-15338150D01*
X10911729Y-15338150D02*
X10930777Y-15347674D01*
X10930777Y-15347674D02*
X10940301Y-15366722D01*
X10940301Y-15366722D02*
X10940301Y-15471484D01*
X10940301Y-15366722D02*
X10949825Y-15347674D01*
X10949825Y-15347674D02*
X10968872Y-15338150D01*
X10968872Y-15338150D02*
X10997444Y-15338150D01*
X10997444Y-15338150D02*
X11016491Y-15347674D01*
X11016491Y-15347674D02*
X11026015Y-15366722D01*
X11026015Y-15366722D02*
X11026015Y-15471484D01*
X11416491Y-15261960D02*
X11245063Y-15519103D01*
X11673634Y-15271484D02*
X11692682Y-15271484D01*
X11692682Y-15271484D02*
X11711729Y-15281008D01*
X11711729Y-15281008D02*
X11721253Y-15290531D01*
X11721253Y-15290531D02*
X11730777Y-15309579D01*
X11730777Y-15309579D02*
X11740301Y-15347674D01*
X11740301Y-15347674D02*
X11740301Y-15395293D01*
X11740301Y-15395293D02*
X11730777Y-15433388D01*
X11730777Y-15433388D02*
X11721253Y-15452436D01*
X11721253Y-15452436D02*
X11711729Y-15461960D01*
X11711729Y-15461960D02*
X11692682Y-15471484D01*
X11692682Y-15471484D02*
X11673634Y-15471484D01*
X11673634Y-15471484D02*
X11654586Y-15461960D01*
X11654586Y-15461960D02*
X11645063Y-15452436D01*
X11645063Y-15452436D02*
X11635539Y-15433388D01*
X11635539Y-15433388D02*
X11626015Y-15395293D01*
X11626015Y-15395293D02*
X11626015Y-15347674D01*
X11626015Y-15347674D02*
X11635539Y-15309579D01*
X11635539Y-15309579D02*
X11645063Y-15290531D01*
X11645063Y-15290531D02*
X11654586Y-15281008D01*
X11654586Y-15281008D02*
X11673634Y-15271484D01*
X11826015Y-15452436D02*
X11835539Y-15461960D01*
X11835539Y-15461960D02*
X11826015Y-15471484D01*
X11826015Y-15471484D02*
X11816491Y-15461960D01*
X11816491Y-15461960D02*
X11826015Y-15452436D01*
X11826015Y-15452436D02*
X11826015Y-15471484D01*
X11959348Y-15271484D02*
X11978396Y-15271484D01*
X11978396Y-15271484D02*
X11997444Y-15281008D01*
X11997444Y-15281008D02*
X12006967Y-15290531D01*
X12006967Y-15290531D02*
X12016491Y-15309579D01*
X12016491Y-15309579D02*
X12026015Y-15347674D01*
X12026015Y-15347674D02*
X12026015Y-15395293D01*
X12026015Y-15395293D02*
X12016491Y-15433388D01*
X12016491Y-15433388D02*
X12006967Y-15452436D01*
X12006967Y-15452436D02*
X11997444Y-15461960D01*
X11997444Y-15461960D02*
X11978396Y-15471484D01*
X11978396Y-15471484D02*
X11959348Y-15471484D01*
X11959348Y-15471484D02*
X11940301Y-15461960D01*
X11940301Y-15461960D02*
X11930777Y-15452436D01*
X11930777Y-15452436D02*
X11921253Y-15433388D01*
X11921253Y-15433388D02*
X11911729Y-15395293D01*
X11911729Y-15395293D02*
X11911729Y-15347674D01*
X11911729Y-15347674D02*
X11921253Y-15309579D01*
X11921253Y-15309579D02*
X11930777Y-15290531D01*
X11930777Y-15290531D02*
X11940301Y-15281008D01*
X11940301Y-15281008D02*
X11959348Y-15271484D01*
X12102206Y-15290531D02*
X12111729Y-15281008D01*
X12111729Y-15281008D02*
X12130777Y-15271484D01*
X12130777Y-15271484D02*
X12178396Y-15271484D01*
X12178396Y-15271484D02*
X12197444Y-15281008D01*
X12197444Y-15281008D02*
X12206967Y-15290531D01*
X12206967Y-15290531D02*
X12216491Y-15309579D01*
X12216491Y-15309579D02*
X12216491Y-15328627D01*
X12216491Y-15328627D02*
X12206967Y-15357198D01*
X12206967Y-15357198D02*
X12092682Y-15471484D01*
X12092682Y-15471484D02*
X12216491Y-15471484D01*
X12397444Y-15271484D02*
X12302206Y-15271484D01*
X12302206Y-15271484D02*
X12292682Y-15366722D01*
X12292682Y-15366722D02*
X12302206Y-15357198D01*
X12302206Y-15357198D02*
X12321253Y-15347674D01*
X12321253Y-15347674D02*
X12368872Y-15347674D01*
X12368872Y-15347674D02*
X12387920Y-15357198D01*
X12387920Y-15357198D02*
X12397444Y-15366722D01*
X12397444Y-15366722D02*
X12406967Y-15385769D01*
X12406967Y-15385769D02*
X12406967Y-15433388D01*
X12406967Y-15433388D02*
X12397444Y-15452436D01*
X12397444Y-15452436D02*
X12387920Y-15461960D01*
X12387920Y-15461960D02*
X12368872Y-15471484D01*
X12368872Y-15471484D02*
X12321253Y-15471484D01*
X12321253Y-15471484D02*
X12302206Y-15461960D01*
X12302206Y-15461960D02*
X12292682Y-15452436D01*
X12578396Y-15271484D02*
X12540301Y-15271484D01*
X12540301Y-15271484D02*
X12521253Y-15281008D01*
X12521253Y-15281008D02*
X12511729Y-15290531D01*
X12511729Y-15290531D02*
X12492682Y-15319103D01*
X12492682Y-15319103D02*
X12483158Y-15357198D01*
X12483158Y-15357198D02*
X12483158Y-15433388D01*
X12483158Y-15433388D02*
X12492682Y-15452436D01*
X12492682Y-15452436D02*
X12502206Y-15461960D01*
X12502206Y-15461960D02*
X12521253Y-15471484D01*
X12521253Y-15471484D02*
X12559348Y-15471484D01*
X12559348Y-15471484D02*
X12578396Y-15461960D01*
X12578396Y-15461960D02*
X12587920Y-15452436D01*
X12587920Y-15452436D02*
X12597444Y-15433388D01*
X12597444Y-15433388D02*
X12597444Y-15385769D01*
X12597444Y-15385769D02*
X12587920Y-15366722D01*
X12587920Y-15366722D02*
X12578396Y-15357198D01*
X12578396Y-15357198D02*
X12559348Y-15347674D01*
X12559348Y-15347674D02*
X12521253Y-15347674D01*
X12521253Y-15347674D02*
X12502206Y-15357198D01*
X12502206Y-15357198D02*
X12492682Y-15366722D01*
X12492682Y-15366722D02*
X12483158Y-15385769D01*
X12673634Y-15271484D02*
X12673634Y-15309579D01*
X12749825Y-15271484D02*
X12749825Y-15309579D01*
X13045063Y-15547674D02*
X13035539Y-15538150D01*
X13035539Y-15538150D02*
X13016491Y-15509579D01*
X13016491Y-15509579D02*
X13006968Y-15490531D01*
X13006968Y-15490531D02*
X12997444Y-15461960D01*
X12997444Y-15461960D02*
X12987920Y-15414341D01*
X12987920Y-15414341D02*
X12987920Y-15376246D01*
X12987920Y-15376246D02*
X12997444Y-15328627D01*
X12997444Y-15328627D02*
X13006968Y-15300055D01*
X13006968Y-15300055D02*
X13016491Y-15281008D01*
X13016491Y-15281008D02*
X13035539Y-15252436D01*
X13035539Y-15252436D02*
X13045063Y-15242912D01*
X13111729Y-15290531D02*
X13121253Y-15281008D01*
X13121253Y-15281008D02*
X13140301Y-15271484D01*
X13140301Y-15271484D02*
X13187920Y-15271484D01*
X13187920Y-15271484D02*
X13206968Y-15281008D01*
X13206968Y-15281008D02*
X13216491Y-15290531D01*
X13216491Y-15290531D02*
X13226015Y-15309579D01*
X13226015Y-15309579D02*
X13226015Y-15328627D01*
X13226015Y-15328627D02*
X13216491Y-15357198D01*
X13216491Y-15357198D02*
X13102206Y-15471484D01*
X13102206Y-15471484D02*
X13226015Y-15471484D01*
X13464110Y-15471484D02*
X13464110Y-15271484D01*
X13549825Y-15471484D02*
X13549825Y-15366722D01*
X13549825Y-15366722D02*
X13540301Y-15347674D01*
X13540301Y-15347674D02*
X13521253Y-15338150D01*
X13521253Y-15338150D02*
X13492682Y-15338150D01*
X13492682Y-15338150D02*
X13473634Y-15347674D01*
X13473634Y-15347674D02*
X13464110Y-15357198D01*
X13673634Y-15471484D02*
X13654587Y-15461960D01*
X13654587Y-15461960D02*
X13645063Y-15452436D01*
X13645063Y-15452436D02*
X13635539Y-15433388D01*
X13635539Y-15433388D02*
X13635539Y-15376246D01*
X13635539Y-15376246D02*
X13645063Y-15357198D01*
X13645063Y-15357198D02*
X13654587Y-15347674D01*
X13654587Y-15347674D02*
X13673634Y-15338150D01*
X13673634Y-15338150D02*
X13702206Y-15338150D01*
X13702206Y-15338150D02*
X13721253Y-15347674D01*
X13721253Y-15347674D02*
X13730777Y-15357198D01*
X13730777Y-15357198D02*
X13740301Y-15376246D01*
X13740301Y-15376246D02*
X13740301Y-15433388D01*
X13740301Y-15433388D02*
X13730777Y-15452436D01*
X13730777Y-15452436D02*
X13721253Y-15461960D01*
X13721253Y-15461960D02*
X13702206Y-15471484D01*
X13702206Y-15471484D02*
X13673634Y-15471484D01*
X13854587Y-15471484D02*
X13835539Y-15461960D01*
X13835539Y-15461960D02*
X13826015Y-15442912D01*
X13826015Y-15442912D02*
X13826015Y-15271484D01*
X14006968Y-15461960D02*
X13987920Y-15471484D01*
X13987920Y-15471484D02*
X13949825Y-15471484D01*
X13949825Y-15471484D02*
X13930777Y-15461960D01*
X13930777Y-15461960D02*
X13921253Y-15442912D01*
X13921253Y-15442912D02*
X13921253Y-15366722D01*
X13921253Y-15366722D02*
X13930777Y-15347674D01*
X13930777Y-15347674D02*
X13949825Y-15338150D01*
X13949825Y-15338150D02*
X13987920Y-15338150D01*
X13987920Y-15338150D02*
X14006968Y-15347674D01*
X14006968Y-15347674D02*
X14016491Y-15366722D01*
X14016491Y-15366722D02*
X14016491Y-15385769D01*
X14016491Y-15385769D02*
X13921253Y-15404817D01*
X14092682Y-15461960D02*
X14111730Y-15471484D01*
X14111730Y-15471484D02*
X14149825Y-15471484D01*
X14149825Y-15471484D02*
X14168872Y-15461960D01*
X14168872Y-15461960D02*
X14178396Y-15442912D01*
X14178396Y-15442912D02*
X14178396Y-15433388D01*
X14178396Y-15433388D02*
X14168872Y-15414341D01*
X14168872Y-15414341D02*
X14149825Y-15404817D01*
X14149825Y-15404817D02*
X14121253Y-15404817D01*
X14121253Y-15404817D02*
X14102206Y-15395293D01*
X14102206Y-15395293D02*
X14092682Y-15376246D01*
X14092682Y-15376246D02*
X14092682Y-15366722D01*
X14092682Y-15366722D02*
X14102206Y-15347674D01*
X14102206Y-15347674D02*
X14121253Y-15338150D01*
X14121253Y-15338150D02*
X14149825Y-15338150D01*
X14149825Y-15338150D02*
X14168872Y-15347674D01*
X14245063Y-15547674D02*
X14254587Y-15538150D01*
X14254587Y-15538150D02*
X14273634Y-15509579D01*
X14273634Y-15509579D02*
X14283158Y-15490531D01*
X14283158Y-15490531D02*
X14292682Y-15461960D01*
X14292682Y-15461960D02*
X14302206Y-15414341D01*
X14302206Y-15414341D02*
X14302206Y-15376246D01*
X14302206Y-15376246D02*
X14292682Y-15328627D01*
X14292682Y-15328627D02*
X14283158Y-15300055D01*
X14283158Y-15300055D02*
X14273634Y-15281008D01*
X14273634Y-15281008D02*
X14254587Y-15252436D01*
X14254587Y-15252436D02*
X14245063Y-15242912D01*
X14606968Y-15547674D02*
X14597444Y-15538150D01*
X14597444Y-15538150D02*
X14578396Y-15509579D01*
X14578396Y-15509579D02*
X14568872Y-15490531D01*
X14568872Y-15490531D02*
X14559349Y-15461960D01*
X14559349Y-15461960D02*
X14549825Y-15414341D01*
X14549825Y-15414341D02*
X14549825Y-15376246D01*
X14549825Y-15376246D02*
X14559349Y-15328627D01*
X14559349Y-15328627D02*
X14568872Y-15300055D01*
X14568872Y-15300055D02*
X14578396Y-15281008D01*
X14578396Y-15281008D02*
X14597444Y-15252436D01*
X14597444Y-15252436D02*
X14606968Y-15242912D01*
X14683158Y-15338150D02*
X14683158Y-15471484D01*
X14683158Y-15357198D02*
X14692682Y-15347674D01*
X14692682Y-15347674D02*
X14711730Y-15338150D01*
X14711730Y-15338150D02*
X14740301Y-15338150D01*
X14740301Y-15338150D02*
X14759349Y-15347674D01*
X14759349Y-15347674D02*
X14768872Y-15366722D01*
X14768872Y-15366722D02*
X14768872Y-15471484D01*
X14892682Y-15471484D02*
X14873634Y-15461960D01*
X14873634Y-15461960D02*
X14864111Y-15452436D01*
X14864111Y-15452436D02*
X14854587Y-15433388D01*
X14854587Y-15433388D02*
X14854587Y-15376246D01*
X14854587Y-15376246D02*
X14864111Y-15357198D01*
X14864111Y-15357198D02*
X14873634Y-15347674D01*
X14873634Y-15347674D02*
X14892682Y-15338150D01*
X14892682Y-15338150D02*
X14921253Y-15338150D01*
X14921253Y-15338150D02*
X14940301Y-15347674D01*
X14940301Y-15347674D02*
X14949825Y-15357198D01*
X14949825Y-15357198D02*
X14959349Y-15376246D01*
X14959349Y-15376246D02*
X14959349Y-15433388D01*
X14959349Y-15433388D02*
X14949825Y-15452436D01*
X14949825Y-15452436D02*
X14940301Y-15461960D01*
X14940301Y-15461960D02*
X14921253Y-15471484D01*
X14921253Y-15471484D02*
X14892682Y-15471484D01*
X15016492Y-15338150D02*
X15092682Y-15338150D01*
X15045063Y-15271484D02*
X15045063Y-15442912D01*
X15045063Y-15442912D02*
X15054587Y-15461960D01*
X15054587Y-15461960D02*
X15073634Y-15471484D01*
X15073634Y-15471484D02*
X15092682Y-15471484D01*
X15311730Y-15338150D02*
X15311730Y-15538150D01*
X15311730Y-15347674D02*
X15330777Y-15338150D01*
X15330777Y-15338150D02*
X15368873Y-15338150D01*
X15368873Y-15338150D02*
X15387920Y-15347674D01*
X15387920Y-15347674D02*
X15397444Y-15357198D01*
X15397444Y-15357198D02*
X15406968Y-15376246D01*
X15406968Y-15376246D02*
X15406968Y-15433388D01*
X15406968Y-15433388D02*
X15397444Y-15452436D01*
X15397444Y-15452436D02*
X15387920Y-15461960D01*
X15387920Y-15461960D02*
X15368873Y-15471484D01*
X15368873Y-15471484D02*
X15330777Y-15471484D01*
X15330777Y-15471484D02*
X15311730Y-15461960D01*
X15521253Y-15471484D02*
X15502206Y-15461960D01*
X15502206Y-15461960D02*
X15492682Y-15442912D01*
X15492682Y-15442912D02*
X15492682Y-15271484D01*
X15683158Y-15471484D02*
X15683158Y-15366722D01*
X15683158Y-15366722D02*
X15673634Y-15347674D01*
X15673634Y-15347674D02*
X15654587Y-15338150D01*
X15654587Y-15338150D02*
X15616492Y-15338150D01*
X15616492Y-15338150D02*
X15597444Y-15347674D01*
X15683158Y-15461960D02*
X15664111Y-15471484D01*
X15664111Y-15471484D02*
X15616492Y-15471484D01*
X15616492Y-15471484D02*
X15597444Y-15461960D01*
X15597444Y-15461960D02*
X15587920Y-15442912D01*
X15587920Y-15442912D02*
X15587920Y-15423865D01*
X15587920Y-15423865D02*
X15597444Y-15404817D01*
X15597444Y-15404817D02*
X15616492Y-15395293D01*
X15616492Y-15395293D02*
X15664111Y-15395293D01*
X15664111Y-15395293D02*
X15683158Y-15385769D01*
X15749825Y-15338150D02*
X15826015Y-15338150D01*
X15778396Y-15271484D02*
X15778396Y-15442912D01*
X15778396Y-15442912D02*
X15787920Y-15461960D01*
X15787920Y-15461960D02*
X15806968Y-15471484D01*
X15806968Y-15471484D02*
X15826015Y-15471484D01*
X15968873Y-15461960D02*
X15949825Y-15471484D01*
X15949825Y-15471484D02*
X15911730Y-15471484D01*
X15911730Y-15471484D02*
X15892682Y-15461960D01*
X15892682Y-15461960D02*
X15883158Y-15442912D01*
X15883158Y-15442912D02*
X15883158Y-15366722D01*
X15883158Y-15366722D02*
X15892682Y-15347674D01*
X15892682Y-15347674D02*
X15911730Y-15338150D01*
X15911730Y-15338150D02*
X15949825Y-15338150D01*
X15949825Y-15338150D02*
X15968873Y-15347674D01*
X15968873Y-15347674D02*
X15978396Y-15366722D01*
X15978396Y-15366722D02*
X15978396Y-15385769D01*
X15978396Y-15385769D02*
X15883158Y-15404817D01*
X16149825Y-15471484D02*
X16149825Y-15271484D01*
X16149825Y-15461960D02*
X16130777Y-15471484D01*
X16130777Y-15471484D02*
X16092682Y-15471484D01*
X16092682Y-15471484D02*
X16073634Y-15461960D01*
X16073634Y-15461960D02*
X16064111Y-15452436D01*
X16064111Y-15452436D02*
X16054587Y-15433388D01*
X16054587Y-15433388D02*
X16054587Y-15376246D01*
X16054587Y-15376246D02*
X16064111Y-15357198D01*
X16064111Y-15357198D02*
X16073634Y-15347674D01*
X16073634Y-15347674D02*
X16092682Y-15338150D01*
X16092682Y-15338150D02*
X16130777Y-15338150D01*
X16130777Y-15338150D02*
X16149825Y-15347674D01*
X16226015Y-15547674D02*
X16235539Y-15538150D01*
X16235539Y-15538150D02*
X16254587Y-15509579D01*
X16254587Y-15509579D02*
X16264111Y-15490531D01*
X16264111Y-15490531D02*
X16273634Y-15461960D01*
X16273634Y-15461960D02*
X16283158Y-15414341D01*
X16283158Y-15414341D02*
X16283158Y-15376246D01*
X16283158Y-15376246D02*
X16273634Y-15328627D01*
X16273634Y-15328627D02*
X16264111Y-15300055D01*
X16264111Y-15300055D02*
X16254587Y-15281008D01*
X16254587Y-15281008D02*
X16235539Y-15252436D01*
X16235539Y-15252436D02*
X16226015Y-15242912D01*
D12*
X9470000Y-15644000D02*
G75*
G02*
X9370940Y-15644000I-49530J0D01*
G01*
X9370940Y-15644000D02*
G75*
G02*
X9470000Y-15644000I49530J0D01*
G01*
D11*
X9768872Y-15535484D02*
X9787920Y-15535484D01*
X9787920Y-15535484D02*
X9806967Y-15545008D01*
X9806967Y-15545008D02*
X9816491Y-15554531D01*
X9816491Y-15554531D02*
X9826015Y-15573579D01*
X9826015Y-15573579D02*
X9835539Y-15611674D01*
X9835539Y-15611674D02*
X9835539Y-15659293D01*
X9835539Y-15659293D02*
X9826015Y-15697388D01*
X9826015Y-15697388D02*
X9816491Y-15716436D01*
X9816491Y-15716436D02*
X9806967Y-15725960D01*
X9806967Y-15725960D02*
X9787920Y-15735484D01*
X9787920Y-15735484D02*
X9768872Y-15735484D01*
X9768872Y-15735484D02*
X9749824Y-15725960D01*
X9749824Y-15725960D02*
X9740301Y-15716436D01*
X9740301Y-15716436D02*
X9730777Y-15697388D01*
X9730777Y-15697388D02*
X9721253Y-15659293D01*
X9721253Y-15659293D02*
X9721253Y-15611674D01*
X9721253Y-15611674D02*
X9730777Y-15573579D01*
X9730777Y-15573579D02*
X9740301Y-15554531D01*
X9740301Y-15554531D02*
X9749824Y-15545008D01*
X9749824Y-15545008D02*
X9768872Y-15535484D01*
X9921253Y-15716436D02*
X9930777Y-15725960D01*
X9930777Y-15725960D02*
X9921253Y-15735484D01*
X9921253Y-15735484D02*
X9911729Y-15725960D01*
X9911729Y-15725960D02*
X9921253Y-15716436D01*
X9921253Y-15716436D02*
X9921253Y-15735484D01*
X10026015Y-15735484D02*
X10064110Y-15735484D01*
X10064110Y-15735484D02*
X10083158Y-15725960D01*
X10083158Y-15725960D02*
X10092682Y-15716436D01*
X10092682Y-15716436D02*
X10111729Y-15687865D01*
X10111729Y-15687865D02*
X10121253Y-15649769D01*
X10121253Y-15649769D02*
X10121253Y-15573579D01*
X10121253Y-15573579D02*
X10111729Y-15554531D01*
X10111729Y-15554531D02*
X10102205Y-15545008D01*
X10102205Y-15545008D02*
X10083158Y-15535484D01*
X10083158Y-15535484D02*
X10045063Y-15535484D01*
X10045063Y-15535484D02*
X10026015Y-15545008D01*
X10026015Y-15545008D02*
X10016491Y-15554531D01*
X10016491Y-15554531D02*
X10006967Y-15573579D01*
X10006967Y-15573579D02*
X10006967Y-15621198D01*
X10006967Y-15621198D02*
X10016491Y-15640246D01*
X10016491Y-15640246D02*
X10026015Y-15649769D01*
X10026015Y-15649769D02*
X10045063Y-15659293D01*
X10045063Y-15659293D02*
X10083158Y-15659293D01*
X10083158Y-15659293D02*
X10102205Y-15649769D01*
X10102205Y-15649769D02*
X10111729Y-15640246D01*
X10111729Y-15640246D02*
X10121253Y-15621198D01*
X10216491Y-15735484D02*
X10254586Y-15735484D01*
X10254586Y-15735484D02*
X10273634Y-15725960D01*
X10273634Y-15725960D02*
X10283158Y-15716436D01*
X10283158Y-15716436D02*
X10302205Y-15687865D01*
X10302205Y-15687865D02*
X10311729Y-15649769D01*
X10311729Y-15649769D02*
X10311729Y-15573579D01*
X10311729Y-15573579D02*
X10302205Y-15554531D01*
X10302205Y-15554531D02*
X10292682Y-15545008D01*
X10292682Y-15545008D02*
X10273634Y-15535484D01*
X10273634Y-15535484D02*
X10235539Y-15535484D01*
X10235539Y-15535484D02*
X10216491Y-15545008D01*
X10216491Y-15545008D02*
X10206967Y-15554531D01*
X10206967Y-15554531D02*
X10197444Y-15573579D01*
X10197444Y-15573579D02*
X10197444Y-15621198D01*
X10197444Y-15621198D02*
X10206967Y-15640246D01*
X10206967Y-15640246D02*
X10216491Y-15649769D01*
X10216491Y-15649769D02*
X10235539Y-15659293D01*
X10235539Y-15659293D02*
X10273634Y-15659293D01*
X10273634Y-15659293D02*
X10292682Y-15649769D01*
X10292682Y-15649769D02*
X10302205Y-15640246D01*
X10302205Y-15640246D02*
X10311729Y-15621198D01*
X10502205Y-15735484D02*
X10387920Y-15735484D01*
X10445063Y-15735484D02*
X10445063Y-15535484D01*
X10445063Y-15535484D02*
X10426015Y-15564055D01*
X10426015Y-15564055D02*
X10406967Y-15583103D01*
X10406967Y-15583103D02*
X10387920Y-15592627D01*
X10587920Y-15735484D02*
X10587920Y-15602150D01*
X10587920Y-15621198D02*
X10597444Y-15611674D01*
X10597444Y-15611674D02*
X10616491Y-15602150D01*
X10616491Y-15602150D02*
X10645063Y-15602150D01*
X10645063Y-15602150D02*
X10664110Y-15611674D01*
X10664110Y-15611674D02*
X10673634Y-15630722D01*
X10673634Y-15630722D02*
X10673634Y-15735484D01*
X10673634Y-15630722D02*
X10683158Y-15611674D01*
X10683158Y-15611674D02*
X10702205Y-15602150D01*
X10702205Y-15602150D02*
X10730777Y-15602150D01*
X10730777Y-15602150D02*
X10749825Y-15611674D01*
X10749825Y-15611674D02*
X10759348Y-15630722D01*
X10759348Y-15630722D02*
X10759348Y-15735484D01*
X10854586Y-15735484D02*
X10854586Y-15602150D01*
X10854586Y-15621198D02*
X10864110Y-15611674D01*
X10864110Y-15611674D02*
X10883158Y-15602150D01*
X10883158Y-15602150D02*
X10911729Y-15602150D01*
X10911729Y-15602150D02*
X10930777Y-15611674D01*
X10930777Y-15611674D02*
X10940301Y-15630722D01*
X10940301Y-15630722D02*
X10940301Y-15735484D01*
X10940301Y-15630722D02*
X10949825Y-15611674D01*
X10949825Y-15611674D02*
X10968872Y-15602150D01*
X10968872Y-15602150D02*
X10997444Y-15602150D01*
X10997444Y-15602150D02*
X11016491Y-15611674D01*
X11016491Y-15611674D02*
X11026015Y-15630722D01*
X11026015Y-15630722D02*
X11026015Y-15735484D01*
X11416491Y-15525960D02*
X11245063Y-15783103D01*
X11673634Y-15535484D02*
X11692682Y-15535484D01*
X11692682Y-15535484D02*
X11711729Y-15545008D01*
X11711729Y-15545008D02*
X11721253Y-15554531D01*
X11721253Y-15554531D02*
X11730777Y-15573579D01*
X11730777Y-15573579D02*
X11740301Y-15611674D01*
X11740301Y-15611674D02*
X11740301Y-15659293D01*
X11740301Y-15659293D02*
X11730777Y-15697388D01*
X11730777Y-15697388D02*
X11721253Y-15716436D01*
X11721253Y-15716436D02*
X11711729Y-15725960D01*
X11711729Y-15725960D02*
X11692682Y-15735484D01*
X11692682Y-15735484D02*
X11673634Y-15735484D01*
X11673634Y-15735484D02*
X11654586Y-15725960D01*
X11654586Y-15725960D02*
X11645063Y-15716436D01*
X11645063Y-15716436D02*
X11635539Y-15697388D01*
X11635539Y-15697388D02*
X11626015Y-15659293D01*
X11626015Y-15659293D02*
X11626015Y-15611674D01*
X11626015Y-15611674D02*
X11635539Y-15573579D01*
X11635539Y-15573579D02*
X11645063Y-15554531D01*
X11645063Y-15554531D02*
X11654586Y-15545008D01*
X11654586Y-15545008D02*
X11673634Y-15535484D01*
X11826015Y-15716436D02*
X11835539Y-15725960D01*
X11835539Y-15725960D02*
X11826015Y-15735484D01*
X11826015Y-15735484D02*
X11816491Y-15725960D01*
X11816491Y-15725960D02*
X11826015Y-15716436D01*
X11826015Y-15716436D02*
X11826015Y-15735484D01*
X11959348Y-15535484D02*
X11978396Y-15535484D01*
X11978396Y-15535484D02*
X11997444Y-15545008D01*
X11997444Y-15545008D02*
X12006967Y-15554531D01*
X12006967Y-15554531D02*
X12016491Y-15573579D01*
X12016491Y-15573579D02*
X12026015Y-15611674D01*
X12026015Y-15611674D02*
X12026015Y-15659293D01*
X12026015Y-15659293D02*
X12016491Y-15697388D01*
X12016491Y-15697388D02*
X12006967Y-15716436D01*
X12006967Y-15716436D02*
X11997444Y-15725960D01*
X11997444Y-15725960D02*
X11978396Y-15735484D01*
X11978396Y-15735484D02*
X11959348Y-15735484D01*
X11959348Y-15735484D02*
X11940301Y-15725960D01*
X11940301Y-15725960D02*
X11930777Y-15716436D01*
X11930777Y-15716436D02*
X11921253Y-15697388D01*
X11921253Y-15697388D02*
X11911729Y-15659293D01*
X11911729Y-15659293D02*
X11911729Y-15611674D01*
X11911729Y-15611674D02*
X11921253Y-15573579D01*
X11921253Y-15573579D02*
X11930777Y-15554531D01*
X11930777Y-15554531D02*
X11940301Y-15545008D01*
X11940301Y-15545008D02*
X11959348Y-15535484D01*
X12092682Y-15535484D02*
X12216491Y-15535484D01*
X12216491Y-15535484D02*
X12149825Y-15611674D01*
X12149825Y-15611674D02*
X12178396Y-15611674D01*
X12178396Y-15611674D02*
X12197444Y-15621198D01*
X12197444Y-15621198D02*
X12206967Y-15630722D01*
X12206967Y-15630722D02*
X12216491Y-15649769D01*
X12216491Y-15649769D02*
X12216491Y-15697388D01*
X12216491Y-15697388D02*
X12206967Y-15716436D01*
X12206967Y-15716436D02*
X12197444Y-15725960D01*
X12197444Y-15725960D02*
X12178396Y-15735484D01*
X12178396Y-15735484D02*
X12121253Y-15735484D01*
X12121253Y-15735484D02*
X12102206Y-15725960D01*
X12102206Y-15725960D02*
X12092682Y-15716436D01*
X12311729Y-15735484D02*
X12349825Y-15735484D01*
X12349825Y-15735484D02*
X12368872Y-15725960D01*
X12368872Y-15725960D02*
X12378396Y-15716436D01*
X12378396Y-15716436D02*
X12397444Y-15687865D01*
X12397444Y-15687865D02*
X12406967Y-15649769D01*
X12406967Y-15649769D02*
X12406967Y-15573579D01*
X12406967Y-15573579D02*
X12397444Y-15554531D01*
X12397444Y-15554531D02*
X12387920Y-15545008D01*
X12387920Y-15545008D02*
X12368872Y-15535484D01*
X12368872Y-15535484D02*
X12330777Y-15535484D01*
X12330777Y-15535484D02*
X12311729Y-15545008D01*
X12311729Y-15545008D02*
X12302206Y-15554531D01*
X12302206Y-15554531D02*
X12292682Y-15573579D01*
X12292682Y-15573579D02*
X12292682Y-15621198D01*
X12292682Y-15621198D02*
X12302206Y-15640246D01*
X12302206Y-15640246D02*
X12311729Y-15649769D01*
X12311729Y-15649769D02*
X12330777Y-15659293D01*
X12330777Y-15659293D02*
X12368872Y-15659293D01*
X12368872Y-15659293D02*
X12387920Y-15649769D01*
X12387920Y-15649769D02*
X12397444Y-15640246D01*
X12397444Y-15640246D02*
X12406967Y-15621198D01*
X12530777Y-15535484D02*
X12549825Y-15535484D01*
X12549825Y-15535484D02*
X12568872Y-15545008D01*
X12568872Y-15545008D02*
X12578396Y-15554531D01*
X12578396Y-15554531D02*
X12587920Y-15573579D01*
X12587920Y-15573579D02*
X12597444Y-15611674D01*
X12597444Y-15611674D02*
X12597444Y-15659293D01*
X12597444Y-15659293D02*
X12587920Y-15697388D01*
X12587920Y-15697388D02*
X12578396Y-15716436D01*
X12578396Y-15716436D02*
X12568872Y-15725960D01*
X12568872Y-15725960D02*
X12549825Y-15735484D01*
X12549825Y-15735484D02*
X12530777Y-15735484D01*
X12530777Y-15735484D02*
X12511729Y-15725960D01*
X12511729Y-15725960D02*
X12502206Y-15716436D01*
X12502206Y-15716436D02*
X12492682Y-15697388D01*
X12492682Y-15697388D02*
X12483158Y-15659293D01*
X12483158Y-15659293D02*
X12483158Y-15611674D01*
X12483158Y-15611674D02*
X12492682Y-15573579D01*
X12492682Y-15573579D02*
X12502206Y-15554531D01*
X12502206Y-15554531D02*
X12511729Y-15545008D01*
X12511729Y-15545008D02*
X12530777Y-15535484D01*
X12673634Y-15535484D02*
X12673634Y-15573579D01*
X12749825Y-15535484D02*
X12749825Y-15573579D01*
X13045063Y-15811674D02*
X13035539Y-15802150D01*
X13035539Y-15802150D02*
X13016491Y-15773579D01*
X13016491Y-15773579D02*
X13006968Y-15754531D01*
X13006968Y-15754531D02*
X12997444Y-15725960D01*
X12997444Y-15725960D02*
X12987920Y-15678341D01*
X12987920Y-15678341D02*
X12987920Y-15640246D01*
X12987920Y-15640246D02*
X12997444Y-15592627D01*
X12997444Y-15592627D02*
X13006968Y-15564055D01*
X13006968Y-15564055D02*
X13016491Y-15545008D01*
X13016491Y-15545008D02*
X13035539Y-15516436D01*
X13035539Y-15516436D02*
X13045063Y-15506912D01*
X13102206Y-15535484D02*
X13226015Y-15535484D01*
X13226015Y-15535484D02*
X13159348Y-15611674D01*
X13159348Y-15611674D02*
X13187920Y-15611674D01*
X13187920Y-15611674D02*
X13206968Y-15621198D01*
X13206968Y-15621198D02*
X13216491Y-15630722D01*
X13216491Y-15630722D02*
X13226015Y-15649769D01*
X13226015Y-15649769D02*
X13226015Y-15697388D01*
X13226015Y-15697388D02*
X13216491Y-15716436D01*
X13216491Y-15716436D02*
X13206968Y-15725960D01*
X13206968Y-15725960D02*
X13187920Y-15735484D01*
X13187920Y-15735484D02*
X13130777Y-15735484D01*
X13130777Y-15735484D02*
X13111729Y-15725960D01*
X13111729Y-15725960D02*
X13102206Y-15716436D01*
X13464110Y-15735484D02*
X13464110Y-15535484D01*
X13549825Y-15735484D02*
X13549825Y-15630722D01*
X13549825Y-15630722D02*
X13540301Y-15611674D01*
X13540301Y-15611674D02*
X13521253Y-15602150D01*
X13521253Y-15602150D02*
X13492682Y-15602150D01*
X13492682Y-15602150D02*
X13473634Y-15611674D01*
X13473634Y-15611674D02*
X13464110Y-15621198D01*
X13673634Y-15735484D02*
X13654587Y-15725960D01*
X13654587Y-15725960D02*
X13645063Y-15716436D01*
X13645063Y-15716436D02*
X13635539Y-15697388D01*
X13635539Y-15697388D02*
X13635539Y-15640246D01*
X13635539Y-15640246D02*
X13645063Y-15621198D01*
X13645063Y-15621198D02*
X13654587Y-15611674D01*
X13654587Y-15611674D02*
X13673634Y-15602150D01*
X13673634Y-15602150D02*
X13702206Y-15602150D01*
X13702206Y-15602150D02*
X13721253Y-15611674D01*
X13721253Y-15611674D02*
X13730777Y-15621198D01*
X13730777Y-15621198D02*
X13740301Y-15640246D01*
X13740301Y-15640246D02*
X13740301Y-15697388D01*
X13740301Y-15697388D02*
X13730777Y-15716436D01*
X13730777Y-15716436D02*
X13721253Y-15725960D01*
X13721253Y-15725960D02*
X13702206Y-15735484D01*
X13702206Y-15735484D02*
X13673634Y-15735484D01*
X13854587Y-15735484D02*
X13835539Y-15725960D01*
X13835539Y-15725960D02*
X13826015Y-15706912D01*
X13826015Y-15706912D02*
X13826015Y-15535484D01*
X14006968Y-15725960D02*
X13987920Y-15735484D01*
X13987920Y-15735484D02*
X13949825Y-15735484D01*
X13949825Y-15735484D02*
X13930777Y-15725960D01*
X13930777Y-15725960D02*
X13921253Y-15706912D01*
X13921253Y-15706912D02*
X13921253Y-15630722D01*
X13921253Y-15630722D02*
X13930777Y-15611674D01*
X13930777Y-15611674D02*
X13949825Y-15602150D01*
X13949825Y-15602150D02*
X13987920Y-15602150D01*
X13987920Y-15602150D02*
X14006968Y-15611674D01*
X14006968Y-15611674D02*
X14016491Y-15630722D01*
X14016491Y-15630722D02*
X14016491Y-15649769D01*
X14016491Y-15649769D02*
X13921253Y-15668817D01*
X14092682Y-15725960D02*
X14111730Y-15735484D01*
X14111730Y-15735484D02*
X14149825Y-15735484D01*
X14149825Y-15735484D02*
X14168872Y-15725960D01*
X14168872Y-15725960D02*
X14178396Y-15706912D01*
X14178396Y-15706912D02*
X14178396Y-15697388D01*
X14178396Y-15697388D02*
X14168872Y-15678341D01*
X14168872Y-15678341D02*
X14149825Y-15668817D01*
X14149825Y-15668817D02*
X14121253Y-15668817D01*
X14121253Y-15668817D02*
X14102206Y-15659293D01*
X14102206Y-15659293D02*
X14092682Y-15640246D01*
X14092682Y-15640246D02*
X14092682Y-15630722D01*
X14092682Y-15630722D02*
X14102206Y-15611674D01*
X14102206Y-15611674D02*
X14121253Y-15602150D01*
X14121253Y-15602150D02*
X14149825Y-15602150D01*
X14149825Y-15602150D02*
X14168872Y-15611674D01*
X14245063Y-15811674D02*
X14254587Y-15802150D01*
X14254587Y-15802150D02*
X14273634Y-15773579D01*
X14273634Y-15773579D02*
X14283158Y-15754531D01*
X14283158Y-15754531D02*
X14292682Y-15725960D01*
X14292682Y-15725960D02*
X14302206Y-15678341D01*
X14302206Y-15678341D02*
X14302206Y-15640246D01*
X14302206Y-15640246D02*
X14292682Y-15592627D01*
X14292682Y-15592627D02*
X14283158Y-15564055D01*
X14283158Y-15564055D02*
X14273634Y-15545008D01*
X14273634Y-15545008D02*
X14254587Y-15516436D01*
X14254587Y-15516436D02*
X14245063Y-15506912D01*
X14606968Y-15811674D02*
X14597444Y-15802150D01*
X14597444Y-15802150D02*
X14578396Y-15773579D01*
X14578396Y-15773579D02*
X14568872Y-15754531D01*
X14568872Y-15754531D02*
X14559349Y-15725960D01*
X14559349Y-15725960D02*
X14549825Y-15678341D01*
X14549825Y-15678341D02*
X14549825Y-15640246D01*
X14549825Y-15640246D02*
X14559349Y-15592627D01*
X14559349Y-15592627D02*
X14568872Y-15564055D01*
X14568872Y-15564055D02*
X14578396Y-15545008D01*
X14578396Y-15545008D02*
X14597444Y-15516436D01*
X14597444Y-15516436D02*
X14606968Y-15506912D01*
X14683158Y-15602150D02*
X14683158Y-15735484D01*
X14683158Y-15621198D02*
X14692682Y-15611674D01*
X14692682Y-15611674D02*
X14711730Y-15602150D01*
X14711730Y-15602150D02*
X14740301Y-15602150D01*
X14740301Y-15602150D02*
X14759349Y-15611674D01*
X14759349Y-15611674D02*
X14768872Y-15630722D01*
X14768872Y-15630722D02*
X14768872Y-15735484D01*
X14892682Y-15735484D02*
X14873634Y-15725960D01*
X14873634Y-15725960D02*
X14864111Y-15716436D01*
X14864111Y-15716436D02*
X14854587Y-15697388D01*
X14854587Y-15697388D02*
X14854587Y-15640246D01*
X14854587Y-15640246D02*
X14864111Y-15621198D01*
X14864111Y-15621198D02*
X14873634Y-15611674D01*
X14873634Y-15611674D02*
X14892682Y-15602150D01*
X14892682Y-15602150D02*
X14921253Y-15602150D01*
X14921253Y-15602150D02*
X14940301Y-15611674D01*
X14940301Y-15611674D02*
X14949825Y-15621198D01*
X14949825Y-15621198D02*
X14959349Y-15640246D01*
X14959349Y-15640246D02*
X14959349Y-15697388D01*
X14959349Y-15697388D02*
X14949825Y-15716436D01*
X14949825Y-15716436D02*
X14940301Y-15725960D01*
X14940301Y-15725960D02*
X14921253Y-15735484D01*
X14921253Y-15735484D02*
X14892682Y-15735484D01*
X15016492Y-15602150D02*
X15092682Y-15602150D01*
X15045063Y-15535484D02*
X15045063Y-15706912D01*
X15045063Y-15706912D02*
X15054587Y-15725960D01*
X15054587Y-15725960D02*
X15073634Y-15735484D01*
X15073634Y-15735484D02*
X15092682Y-15735484D01*
X15311730Y-15602150D02*
X15311730Y-15802150D01*
X15311730Y-15611674D02*
X15330777Y-15602150D01*
X15330777Y-15602150D02*
X15368873Y-15602150D01*
X15368873Y-15602150D02*
X15387920Y-15611674D01*
X15387920Y-15611674D02*
X15397444Y-15621198D01*
X15397444Y-15621198D02*
X15406968Y-15640246D01*
X15406968Y-15640246D02*
X15406968Y-15697388D01*
X15406968Y-15697388D02*
X15397444Y-15716436D01*
X15397444Y-15716436D02*
X15387920Y-15725960D01*
X15387920Y-15725960D02*
X15368873Y-15735484D01*
X15368873Y-15735484D02*
X15330777Y-15735484D01*
X15330777Y-15735484D02*
X15311730Y-15725960D01*
X15521253Y-15735484D02*
X15502206Y-15725960D01*
X15502206Y-15725960D02*
X15492682Y-15706912D01*
X15492682Y-15706912D02*
X15492682Y-15535484D01*
X15683158Y-15735484D02*
X15683158Y-15630722D01*
X15683158Y-15630722D02*
X15673634Y-15611674D01*
X15673634Y-15611674D02*
X15654587Y-15602150D01*
X15654587Y-15602150D02*
X15616492Y-15602150D01*
X15616492Y-15602150D02*
X15597444Y-15611674D01*
X15683158Y-15725960D02*
X15664111Y-15735484D01*
X15664111Y-15735484D02*
X15616492Y-15735484D01*
X15616492Y-15735484D02*
X15597444Y-15725960D01*
X15597444Y-15725960D02*
X15587920Y-15706912D01*
X15587920Y-15706912D02*
X15587920Y-15687865D01*
X15587920Y-15687865D02*
X15597444Y-15668817D01*
X15597444Y-15668817D02*
X15616492Y-15659293D01*
X15616492Y-15659293D02*
X15664111Y-15659293D01*
X15664111Y-15659293D02*
X15683158Y-15649769D01*
X15749825Y-15602150D02*
X15826015Y-15602150D01*
X15778396Y-15535484D02*
X15778396Y-15706912D01*
X15778396Y-15706912D02*
X15787920Y-15725960D01*
X15787920Y-15725960D02*
X15806968Y-15735484D01*
X15806968Y-15735484D02*
X15826015Y-15735484D01*
X15968873Y-15725960D02*
X15949825Y-15735484D01*
X15949825Y-15735484D02*
X15911730Y-15735484D01*
X15911730Y-15735484D02*
X15892682Y-15725960D01*
X15892682Y-15725960D02*
X15883158Y-15706912D01*
X15883158Y-15706912D02*
X15883158Y-15630722D01*
X15883158Y-15630722D02*
X15892682Y-15611674D01*
X15892682Y-15611674D02*
X15911730Y-15602150D01*
X15911730Y-15602150D02*
X15949825Y-15602150D01*
X15949825Y-15602150D02*
X15968873Y-15611674D01*
X15968873Y-15611674D02*
X15978396Y-15630722D01*
X15978396Y-15630722D02*
X15978396Y-15649769D01*
X15978396Y-15649769D02*
X15883158Y-15668817D01*
X16149825Y-15735484D02*
X16149825Y-15535484D01*
X16149825Y-15725960D02*
X16130777Y-15735484D01*
X16130777Y-15735484D02*
X16092682Y-15735484D01*
X16092682Y-15735484D02*
X16073634Y-15725960D01*
X16073634Y-15725960D02*
X16064111Y-15716436D01*
X16064111Y-15716436D02*
X16054587Y-15697388D01*
X16054587Y-15697388D02*
X16054587Y-15640246D01*
X16054587Y-15640246D02*
X16064111Y-15621198D01*
X16064111Y-15621198D02*
X16073634Y-15611674D01*
X16073634Y-15611674D02*
X16092682Y-15602150D01*
X16092682Y-15602150D02*
X16130777Y-15602150D01*
X16130777Y-15602150D02*
X16149825Y-15611674D01*
X16226015Y-15811674D02*
X16235539Y-15802150D01*
X16235539Y-15802150D02*
X16254587Y-15773579D01*
X16254587Y-15773579D02*
X16264111Y-15754531D01*
X16264111Y-15754531D02*
X16273634Y-15725960D01*
X16273634Y-15725960D02*
X16283158Y-15678341D01*
X16283158Y-15678341D02*
X16283158Y-15640246D01*
X16283158Y-15640246D02*
X16273634Y-15592627D01*
X16273634Y-15592627D02*
X16264111Y-15564055D01*
X16264111Y-15564055D02*
X16254587Y-15545008D01*
X16254587Y-15545008D02*
X16235539Y-15516436D01*
X16235539Y-15516436D02*
X16226015Y-15506912D01*
M02*
